<svg width="51" height="49" viewBox="0 0 51 49" xmlns="http://www.w3.org/2000/svg"><title>work</title><defs><linearGradient x1="0%" y1="0%" y2="100%" id="a"><stop stop-color="#CC3E92" offset="0%"/><stop stop-color="#EC539A" offset="100%"/></linearGradient></defs><path d="M41.172 31.638a6.867 6.867 0 0 0 3.252-5.85v-5.242c0-3.416-2.485-6.256-5.721-6.765V8.717a.75.75 0 0 0-.745-.753H29.98V4.938c0-2.69-2.163-4.88-4.821-4.88H13.544c-2.658 0-4.821 2.19-4.821 4.88v3.026H.745A.75.75 0 0 0 0 8.717V35.48a.75.75 0 0 0 .745.753h6.568a.75.75 0 0 0 .744-.753.75.75 0 0 0-.744-.754H1.489V19.505a9.025 9.025 0 0 0 5.74 3.936v.827c0 1.33 1.068 2.412 2.382 2.412s2.383-1.082 2.383-2.412v-.64h5.752a.75.75 0 0 0 .745-.753.75.75 0 0 0-.745-.754h-5.752v-1.845a.75.75 0 0 0-.745-.754H7.973a.75.75 0 0 0-.745.754v1.623c-3.325-.826-5.739-3.873-5.739-7.413V9.471h35.724v4.243c-.044.003-.087.009-.132.013l-.152.013c-.062.007-.123.016-.184.024l-.147.02c-.062.01-.123.023-.185.034-.047.01-.094.017-.14.027l-.19.044c-.043.011-.087.02-.13.032-.067.018-.133.038-.198.057l-.116.034a6.37 6.37 0 0 0-.22.076l-.088.03a6.715 6.715 0 0 0-.597.257l-.06.03a6.786 6.786 0 0 0-.227.118c-.03.016-.06.035-.09.052-.063.036-.126.071-.188.11-.034.02-.066.042-.1.063l-.17.11-.103.074a5.696 5.696 0 0 0-.158.113l-.103.08c-.05.04-.1.079-.148.119-.035.028-.069.058-.103.087-.047.04-.093.08-.14.123l-.1.094a6.865 6.865 0 0 0-.131.127c-.033.032-.065.066-.097.1a7.018 7.018 0 0 0-.424.484 6.45 6.45 0 0 0-.474.674 7.077 7.077 0 0 0-.313.566l-.064.133a4.76 4.76 0 0 0-.073.163 6.765 6.765 0 0 0-.123.303c-.018.046-.036.092-.052.139a6.85 6.85 0 0 0-.058.172l-.045.14a5.19 5.19 0 0 0-.05.178l-.038.142c-.015.06-.028.121-.042.182l-.031.143c-.013.063-.023.127-.034.19l-.023.14c-.01.068-.018.136-.026.204-.005.044-.012.088-.016.132-.007.076-.012.152-.017.228-.003.037-.007.075-.008.113a6.59 6.59 0 0 0-.01.345v1.473c-.345.058-.694.09-1.042.1v-1.843a.75.75 0 0 0-.745-.754h-3.277a.75.75 0 0 0-.744.754v1.845h-4.86a.75.75 0 0 0-.744.754.75.75 0 0 0 .745.753h4.859v.64c0 1.33 1.069 2.412 2.383 2.412s2.383-1.082 2.383-2.412v-.643a8.92 8.92 0 0 0 1.043-.083v2.247c0 .114.003.228.008.342l.01.132c.005.068.009.137.015.205l.02.163.021.17.03.18.027.147c.012.065.027.13.042.193l.03.129c.016.069.035.137.054.205l.031.11c.022.074.046.147.07.22l.03.087c.028.08.058.16.09.238l.023.062c.036.088.073.174.112.26l.014.031a6.864 6.864 0 0 0 2.625 2.975 13.884 13.884 0 0 0-5.504 3.088H9.794a.75.75 0 0 0-.744.754.75.75 0 0 0 .744.753h17.427c-1.808 2.23-2.9 5.008-2.9 7.965v3.99a.75.75 0 0 0 .744.754h5.672a.75.75 0 0 0 .745-.753.75.75 0 0 0-.745-.754H25.81v-3.237c0-3.01 1.269-5.89 3.573-8.105l.07-.066a12.705 12.705 0 0 1 .847-.733l.103-.08.153-.116.151-.112.065-.046a12.57 12.57 0 0 1 3.447-1.738l1.209 2.377-1.616 7.097a.76.76 0 0 0 .223.726l3.123 2.892a.737.737 0 0 0 1.005 0l3.122-2.892a.76.76 0 0 0 .223-.726l-1.615-7.097 1.21-2.377a12.57 12.57 0 0 1 4.834 2.89c2.305 2.217 3.574 5.095 3.574 8.106v3.237H33.219a.75.75 0 0 0-.744.753.75.75 0 0 0 .744.754h17.036a.75.75 0 0 0 .745-.754v-3.99c0-5.824-4.236-10.952-9.828-12.56zM8.717 22.804v-1.775h1.787v3.239a.9.9 0 0 1-.893.904.9.9 0 0 1-.894-.904v-1.464zm17.109-14.84h-12.95V5.478a1.24 1.24 0 0 1 1.232-1.246h10.486c.68 0 1.232.559 1.232 1.246v2.486zm2.665 0h-1.176V5.478c0-1.518-1.22-2.754-2.72-2.754H14.107c-1.5 0-2.72 1.236-2.72 2.754v2.486h-1.176V4.938c0-1.86 1.495-3.373 3.332-3.373h11.614c1.838 0 3.333 1.513 3.333 3.373v3.026zm-.127 14.91v1.394a.9.9 0 0 1-.894.904.9.9 0 0 1-.894-.904v-3.239h1.788v1.846zm4.025-2.331c0-2.85 2.219-5.186 5-5.329a5.246 5.246 0 0 1 .524 0h.018c2.781.143 5 2.479 5 5.329v1.795c-2.401-.45-3.373-2.923-3.417-3.036a.745.745 0 0 0-.644-.483.747.747 0 0 0-.705.389c-.068.123-1.621 2.875-5.776 3.175v-1.84zm7.57 22.044l-2.299 2.13-2.299-2.13 1.446-6.354h1.706l1.446 6.354zm-4.258-9.763a11.06 11.06 0 0 1 1.025-.146l.032-.003c.11-.01.221-.019.332-.026l.133-.008c.09-.005.18-.008.27-.01.056.001.111.004.167.004.056 0 .112-.003.168-.004.09.002.18.005.27.01l.086.004a11.881 11.881 0 0 1 1.1.12l.14.024.195.034-.967 1.903h-1.983l-.968-1.902zm2.268-1.706c-.016 0-.031-.001-.047 0a2.596 2.596 0 0 0-.073.004l-.179-.005h-.02l-.179.005c-2.717-.098-4.942-2.343-5.079-5.067a5.467 5.467 0 0 1-.006-.266v-1.896c3.367-.209 5.347-1.813 6.324-2.918.688 1.088 2.022 2.599 4.225 2.89v1.924c0 2.839-2.2 5.167-4.966 5.329z" fill="url(#a)"/></svg>