<svg width="42" height="45" viewBox="0 0 42 45" xmlns="http://www.w3.org/2000/svg"><title>idea</title><defs><linearGradient x1="0%" y1="0%" y2="100%" id="a"><stop stop-color="#CC3E92" offset="0%"/><stop stop-color="#EC539A" offset="100%"/></linearGradient></defs><path d="M21 6.667c-7.874 0-14.28 6.355-14.28 14.166 0 5.927 3.688 11.177 9.24 13.25v7.584c0 .46.375.833.84.833h.84v1.667c0 .46.375.833.84.833h5.04c.465 0 .84-.373.84-.833V42.5h.84c.465 0 .84-.373.84-.833v-7.584c5.552-2.073 9.24-7.323 9.24-13.25 0-7.811-6.406-14.166-14.28-14.166zm2.52 34.166a.836.836 0 0 0-.84.834v1.666h-3.36v-1.666a.836.836 0 0 0-.84-.834h-.84v-4.166h6.72v4.166h-.84zm1.418-8.131a.834.834 0 0 0-.578.791V35h-6.72v-1.507a.833.833 0 0 0-.578-.791c-5.18-1.69-8.662-6.46-8.662-11.869 0-6.892 5.652-12.5 12.6-12.5 6.948 0 12.6 5.608 12.6 12.5 0 5.409-3.482 10.179-8.662 11.869zM21 5a.836.836 0 0 1-.84-.833V.833c0-.46.375-.833.84-.833.465 0 .84.372.84.833v3.334c0 .46-.375.833-.84.833zm20.16 15c.465 0 .84.372.84.833a.836.836 0 0 1-.84.834H37.8a.836.836 0 0 1-.84-.834c0-.46.375-.833.84-.833h3.36zM4.2 20c.465 0 .84.372.84.833a.836.836 0 0 1-.84.834H.84a.836.836 0 0 1-.84-.834c0-.46.375-.833.84-.833H4.2zM34.662 6.102a.845.845 0 0 1 1.188 0 .828.828 0 0 1 0 1.178l-2.376 2.357a.841.841 0 0 1-1.188 0 .828.828 0 0 1 0-1.179l2.376-2.356zM8.526 32.03a.844.844 0 0 1 1.188 0 .828.828 0 0 1 0 1.178l-2.376 2.357a.841.841 0 0 1-1.188 0 .828.828 0 0 1 0-1.178l2.376-2.357zm24.948 0l2.376 2.357a.828.828 0 0 1 0 1.178.841.841 0 0 1-1.188 0l-2.376-2.357a.828.828 0 0 1 0-1.178.844.844 0 0 1 1.188 0zM8.526 9.637L6.15 7.28a.828.828 0 0 1 0-1.178.844.844 0 0 1 1.188 0l2.376 2.356a.828.828 0 0 1 0 1.179.841.841 0 0 1-1.188 0zM21 10.833c-5.558 0-10.08 4.486-10.08 10 0 .461.375.834.84.834.465 0 .84-.373.84-.834 0-4.595 3.768-8.333 8.4-8.333.465 0 .84-.373.84-.833a.836.836 0 0 0-.84-.834z" fill="url(#a)"/></svg>