<svg width="48" height="48" viewBox="0 0 48 48" xmlns="http://www.w3.org/2000/svg"><title>price</title><defs><linearGradient x1="18.09%" y1="0%" y2="100%" id="a"><stop stop-color="#CC3E92" offset="0%"/><stop stop-color="#EC539A" offset="100%"/></linearGradient></defs><path d="M47.507 9.338L38.147 0H26.354l-4.648 4.632C10.15 3.668.832 10.17.701 10.262a.841.841 0 1 0 .979 1.37c.117-.083 8.179-5.706 18.426-5.405L5.052 21.232l.007.007L0 26.285l21.176 21.222 8.454-8.432c1.737.909 3.757 1.356 5.755 1.355 2.948 0 5.84-.958 7.664-2.782 6.204-6.205 3.742-13.01 2.9-14.849l1.557-1.554V9.338zM37.45 1.684l8.371 8.353v10.51L29.37 36.946c-3.439-2.466-4.486-7.093-2.941-13.16a.842.842 0 0 0-.608-1.023.837.837 0 0 0-1.024.608c-2.18 8.562.75 12.784 3.367 14.776l-1.93 1.925L7.44 21.242l14.888-14.85c3.535.404 7.268 1.57 10.986 3.93a3.272 3.272 0 0 0-.057.57 3.317 3.317 0 0 0 3.314 3.314 3.318 3.318 0 0 0 3.314-3.313 3.318 3.318 0 0 0-3.314-3.314 3.29 3.29 0 0 0-2.537 1.21C30.59 6.634 27.14 5.434 23.83 4.895l3.22-3.212h10.4zm-2.24 9.937a.84.84 0 1 0 1.01-1.347c-.26-.194-.52-.366-.781-.549a1.62 1.62 0 0 1 1.132-.462c.898 0 1.63.731 1.63 1.63 0 .898-.73 1.63-1.63 1.63a1.632 1.632 0 0 1-1.503-1.002c.048.034.096.064.143.1zM2.382 26.288l3.867-3.857L25.046 41.27l-3.867 3.857L2.38 26.288zm39.478 10.17c-2.17 2.167-7.049 3.155-10.973 1.364l13.79-13.753c.837 2.085 2.193 7.377-2.817 12.388z" fill="url(#a)"/></svg>