<svg width="51" height="49" viewBox="0 0 51 49" xmlns="http://www.w3.org/2000/svg"><title>partner</title><defs><linearGradient x1="11.804%" y1="0%" x2="102.164%" y2="100%" id="a"><stop stop-color="#CC3E92" offset="0%"/><stop stop-color="#EC539A" offset="100%"/></linearGradient></defs><path d="M45.422 16.72h-1.376a6.466 6.466 0 0 0 2.173-4.84c0-3.558-2.86-6.453-6.375-6.453s-6.375 2.895-6.375 6.453a6.47 6.47 0 0 0 2.172 4.84h-1.375c-3.076 0-5.578 2.533-5.578 5.645v4.033h-6.376v-4.033c0-3.112-2.502-5.646-5.578-5.646H15.36a6.466 6.466 0 0 0 2.172-4.84c0-3.557-2.86-6.452-6.375-6.452S4.781 8.322 4.781 11.88c0 1.928.844 3.656 2.173 4.84H5.578C2.502 16.72 0 19.252 0 22.364v11.293c0 .446.357.806.797.806H4.78v13.712c0 .446.357.807.797.807h11.156c.44 0 .797-.36.797-.807V32.023c.668.513 1.49.828 2.39.828h11.157c.9 0 1.723-.315 2.39-.828v16.153c0 .446.358.807.798.807h11.156c.44 0 .797-.36.797-.807V34.464h3.984c.44 0 .797-.36.797-.806V22.365c0-3.112-2.502-5.646-5.578-5.646zM6.375 11.88c0-2.67 2.144-4.84 4.781-4.84 2.637 0 4.781 2.17 4.781 4.84 0 2.669-2.144 4.84-4.78 4.84-2.638 0-4.782-2.171-4.782-4.84zm18.328 19.358h-4.781c-1.318 0-2.39-1.086-2.39-2.42v-6.453h-1.595V47.37h-3.984V32.851H10.36v14.518H6.375V22.365H4.781v10.486H1.594V22.365c0-2.223 1.787-4.033 3.984-4.033h11.156c2.197 0 3.985 1.81 3.985 4.033v4.84c0 .446.357.806.797.806h3.187v3.227zm10.36-19.358c0-2.67 2.144-4.84 4.78-4.84 2.638 0 4.782 2.17 4.782 4.84 0 2.669-2.144 4.84-4.781 4.84-2.637 0-4.782-2.171-4.782-4.84zm14.343 20.97H46.22V22.365h-1.594V47.37h-3.984V32.851h-1.594v14.518h-3.984V22.365H33.47v6.453c0 1.334-1.073 2.42-2.39 2.42h-4.782V28.01h3.187c.44 0 .797-.36.797-.806v-4.84c0-2.223 1.788-4.033 3.985-4.033h11.156c2.197 0 3.984 1.81 3.984 4.033V32.85zM36.423 2.431a.813.813 0 0 1 0 1.141l-2.396 2.425-1.127-1.14 1.03-1.043h-5.715l-1.594 1.613 1.594 1.613h3.66v1.613h-3.99a.791.791 0 0 1-.563-.236l-1.828-1.85-1.827 1.85a.79.79 0 0 1-.563.236h-3.979V7.04h3.649l1.594-1.613-1.594-1.613h-5.715l1.03 1.043-1.127 1.14-2.396-2.425a.813.813 0 0 1 0-1.14L16.951.016l1.127 1.14-1.03 1.044h6.056a.79.79 0 0 1 .563.236l1.827 1.85 1.828-1.85a.79.79 0 0 1 .563-.236h6.056l-1.03-1.043 1.127-1.14 2.385 2.413z" fill="url(#a)"/></svg>