<svg width="83pt" height="79pt" viewBox="0 0 83 79" xmlns="http://www.w3.org/2000/svg"><path fill="#b72487" d="M0 0h1.95c1.97 2.01 3.67 4.29 4.84 6.85.11 5.41-.02 10.81.03 16.22-2.26 2.34-4.61 4.59-6.82 6.98V0z"/><path fill="#c32584" d="M1.95 0h27.98c-2.4 2.22-4.66 4.59-6.97 6.89-5.39-.03-10.78 0-16.17-.04C5.62 4.29 3.92 2.01 1.95 0z"/><path fill="#e4237d" d="M53.08 0H83v30.04c-2.21-2.38-4.55-4.63-6.81-6.96.01-5.4 0-10.8-.01-16.2-5.38-.01-10.76-.02-16.13 0-2.32-2.3-4.57-4.67-6.97-6.88z"/><path fill="#bc2486" d="M26.57 21.29c1.27-.45 2.54-.91 3.81-1.36 0 5.65-.01 11.3-.01 16.94h-3.8c0-5.19-.02-10.38 0-15.58z"/><path d="M43.23 20.32c2.23-1.93 4.92 1.91 2.64 3.51-2.24 1.78-4.91-1.97-2.64-3.51zm9.1 5.23c3.74-1.71 8.6 1.16 8.24 5.45.5 4.1-3.84 7.26-7.65 5.96-5.1-1.21-5.4-9.6-.59-11.41m1.21 2.99c-1.18 1.74-1.33 5.39 1.34 5.7 3.14-.7 2.1-7.7-1.34-5.7z" fill="#ca2482"/><path fill="#c02584" d="M33.81 22.71c1.22-.46 2.45-.92 3.68-1.38.01 1.35.02 2.69.02 4.03.61.01 1.83.02 2.44.02v2.73l-2.5.04c.22 2.3-.95 6.43 2.79 5.86.06.73.19 2.18.26 2.91-2.07-.04-4.94 1-6.33-1.13-.73-2.35-.34-4.87-.41-7.3-1.43-.4-2.07-1.41-1.93-3.02.5-.04 1.49-.1 1.98-.14v-2.62z"/><path fill="#b82586" d="M15.24 28.57c-.42-1.32-1.03-2.9.85-3.08 2.66-.68 7.01-.89 7.89 2.47.4 2.95.17 5.95.2 8.92-2.72-.32-5.43.03-8.15.2-3.08-.59-3.49-5.48-.8-6.85 1.69-.94 3.69-.46 5.53-.48-.21-.41-.62-1.24-.83-1.65-1.56.14-3.13.3-4.69.47m2.03 5.25c1.36 1.23 2.79-.08 3.99-.79-1.29-.95-4.29-1.77-3.99.79z"/><path fill="#c42483" d="M42.69 25.37h3.75c0 3.84 0 7.67-.01 11.51-.93 0-2.8-.01-3.74-.01v-11.5z"/><path fill="#d02381" d="M62.75 25.39l3.73-.04-.2 1.17c1.56-.8 3.19-1.48 4.98-1.44-.11.92-.32 2.77-.42 3.7-1.33.32-3.22-.25-4.12 1.03-.41 2.33-.19 4.72-.23 7.07-.93 0-2.8-.01-3.74-.01V25.39z"/><path d="M38.49 39.4c2.79-.63 3.56 4.19.58 4.34-2.78.44-3.3-4.08-.58-4.34zm4.83 5.45c1.43.11 2.87.28 4.28.57 1.99-.8 4.85-1.33 6.13.9 1.18 3.21.48 6.76.64 10.12h-3.74c-.05-2.56.21-5.14-.24-7.67-.48-1.44-2.7-1.02-3.08.27-.34 2.45-.17 4.93-.19 7.39-1.25 0-2.5 0-3.74.01.01-3.86.01-7.73-.06-11.59z" fill="#bb2486"/><path fill="#c22584" d="M57.6 42.23c1.24-.46 2.47-.92 3.71-1.38v3.99c.61.02 1.83.05 2.44.06.01.68.01 2.03.02 2.71l-2.53.04c.28 2.31-.89 6.46 2.86 5.85l.28 2.87c-2.15.07-5.38 1.13-6.49-1.44-.46-2.38-.24-4.83-.26-7.24-.49-.04-1.46-.11-1.94-.14-.17-1.65.49-2.67 1.98-3.07-.02-.56-.05-1.68-.07-2.25z"/><path fill="#aa2589" d="M13.45 61.46c-.02-5.54-.01-11.08-.02-16.61 2.85.65 5.74-.27 8.55.11 3.28 1.83 3.33 6.72 1.71 9.7-1.32 2.4-4.29 2.02-6.53 1.51.04 1.29.08 2.58.11 3.87-1.27.47-2.55.94-3.82 1.42m3.84-13.32c-.02 1.67-.04 3.33-.05 5 2.77 1.46 4.38-1.55 3.36-4.01-.22-1.79-2.12-1.04-3.31-.99z"/><path fill="#b12588" d="M26.88 44.69c1.42.27 2.83.52 4.26.69 1.43-.3 2.86-.56 4.3-.78-.13.92-.39 2.78-.52 3.71-1.3.17-2.75-.05-3.92.67-.65 2.42-.32 4.98-.39 7.46-1.24 0-2.49-.01-3.73-.01 0-3.91-.01-7.82 0-11.74z"/><path fill="#b62487" d="M37 44.88h3.75v11.56c-1.25 0-2.49 0-3.74.01C37 52.59 37 48.73 37 44.88z"/><path fill="#9b268d" d="M0 48.95c2.21 2.39 4.57 4.64 6.83 6.98-.02 5.4-.01 10.79-.01 16.19 5.37 0 10.75.01 16.13-.01 2.32 2.3 4.57 4.68 6.98 6.89H0V48.95z"/><path fill="#c62483" d="M76.33 56.13c1.81-2.73 4.52-4.72 6.67-7.17V79h-.67c-2.2-2.15-4.17-4.52-6.15-6.88.15-5.32-.26-10.67.15-15.99z"/><path fill="#b82486" d="M60.05 72.11c5.38.02 10.76 0 16.13.01 1.98 2.36 3.95 4.73 6.15 6.88H53.09c2.4-2.21 4.64-4.59 6.96-6.89z"/></svg>