<svg width="499pt" height="632" viewBox="0 0 499 474" xmlns="http://www.w3.org/2000/svg"><path fill="#0e0209" opacity=".28" d="M0 0h1.01C1 9.92 1.01 19.83 1 29.75c0 49.64 0 99.27.02 148.9.51-.46 1.52-1.4 2.03-1.86A297.21 297.21 0 0 1 0 179.9V0z"/><path fill="#bf217c" d="M1.01 0h54.64c13.37 13.81 27.32 27.06 40.56 41-18.09.01-36.18-.01-54.28 0h-.91c0 9.39.01 18.78 0 28.17C27.3 56.43 14.64 42.58 1 29.75 1.01 19.83 1 9.92 1.01 0z"/><path d="M55.65 0h123.51c-13.38 13.36-26.69 26.8-40.06 40.18-1.01 1.18-2.7.7-4.05.85-12.94-.07-25.89-.02-38.84-.03C82.97 27.06 69.02 13.81 55.65 0zM257 152.55c7.35-.08 14.69.18 22.03-.17-.03 22.94-.1 45.87.04 68.81-7.35-.42-14.71-.1-22.06-.2 0-22.81-.02-45.63-.01-68.44zM497.4 295.7c1.07 3 .49 6.25.61 9.36-.01 56.31-.01 112.63-.02 168.94h-1.24c-6.58-8.27-14.78-15.06-21.98-22.76-5.68-6.08-12.25-11.36-17.31-18 .41-1.38.62-2.81.58-4.23-.23-31.21.14-62.43-.19-93.63 13.28-13.12 26.43-26.39 39.55-39.68z" fill="#c5227b"/><path d="M319.83 0h62.81c13.36 13.84 27.37 27.04 40.62 41-20.84.02-41.69-.02-62.54.01C347.1 27.34 333.51 13.62 319.83 0zm138.15 75.74c13.61 12.9 26.42 26.62 40.02 39.53-.01 21.12.02 42.25-.02 63.38-.5-.47-1.5-1.4-2-1.86-12.7-12.72-25.28-25.56-38.11-38.15.26-20.96.03-41.93.11-62.9z" fill="#da2578"/><path fill="#e02677" d="M382.64 0H498c.01 38.42-.01 76.85 0 115.27-13.6-12.91-26.41-26.63-40.02-39.53V41h-.91c-11.27-.01-22.54 0-33.81 0C410.01 27.04 396 13.84 382.64 0z"/><path fill="#110309" opacity=".28" d="M498 0h1v179.92c-1-1.06-2.01-2.1-3.02-3.13.5.46 1.5 1.39 2 1.86.04-21.13.01-42.26.02-63.38-.01-38.42.01-76.85 0-115.27z"/><path fill="#b71f7d" d="M1 29.75c13.64 12.83 26.3 26.68 40.02 39.42.1 23.15-.17 46.3.13 69.45-12.8 12.61-25.42 25.42-38.1 38.17-.51.46-1.52 1.4-2.03 1.86C1 129.02 1 79.39 1 29.75z"/><path fill="#12030c" opacity=".31" d="M41.02 41h.91c-.02 29.35-.07 58.7.01 88.05-.11 3.18.47 6.55-.79 9.57-.3-23.15-.03-46.3-.13-69.45.01-9.39 0-18.78 0-28.17z"/><path fill="#15030b" opacity=".31" d="M457.07 41h.91v34.74c-.08 20.97.15 41.94-.11 62.9a7.657 7.657 0 0 1-.8-3.64c.04-31.33.01-62.67 0-94z"/><path fill="#200515" opacity=".41" d="M179.8 120.9c1.02-.47 2.07-.87 3.14-1.19.09 29.43.04 58.86.05 88.29-.05 4.5.2 9-.25 13.49-7.6-.06-15.28.58-22.82-.31 7.37-.41 14.77-.08 22.15-.19-.08-33.6.01-67.19-.03-100.78-.56.17-1.68.52-2.24.69z"/><path d="M263.29 120.23c7.19-2.94 16.19 2.05 17.09 9.85 1.53 7.08-4.08 14.57-11.3 15.01-6.62.71-13.24-4.38-14.01-11.03-.89-5.8 2.7-11.85 8.22-13.83zm58.17 31.41c10.33-1.85 21.79-.07 30.1 6.66 7.17 5.72 11.09 14.75 11.86 23.75.95 9.88-.83 20.45-7 28.46-8.73 11.47-24.93 14.5-38.33 11.05-9.97-2.44-18.31-10.21-21.45-19.98-3.43-10.49-3.2-22.44 1.37-32.55 4.17-9.34 13.46-15.8 23.45-17.39m3.66 17.67c-2.75.86-4.81 3.13-5.97 5.7-2.66 5.59-2.6 12.04-1.87 18.06.72 4.52 2.83 9.54 7.43 11.28 3.59 1.19 8.03 1.03 10.97-1.62 3.88-3.37 5.11-8.78 5.27-13.71.22-5.79-.32-12.16-4.11-16.84-2.8-3.36-7.7-3.94-11.72-2.87z" fill="#c9227a"/><path d="M160 128.15c6.61-2.39 13.2-4.85 19.8-7.25.56-.17 1.68-.52 2.24-.69.04 33.59-.05 67.18.03 100.78-7.38.11-14.78-.22-22.15.19.2-31.01.02-62.02.08-93.03zm69.2 109.04c7.51-2.99 16.7 2.7 17.06 10.83 1.07 7.13-5.1 14.23-12.3 14.13-6.69.31-13.15-5.38-13.19-12.18-.44-5.54 3.21-10.96 8.43-12.78zm53.84 39.91c8.8-10.14 25.84-12.27 36.15-3.27 4.12 3.86 6.12 9.46 6.82 14.95.05 16.4-.06 32.8.05 49.2-7.11.03-14.22.02-21.33 0-.23-13.44.53-26.92-.4-40.33-.37-2.6-.72-5.43-2.55-7.47-4.48-5.21-14.18-3.63-16.98 2.59-1.37 2.88-1.77 6.11-1.77 9.27.01 12.06.01 24.11 0 36.17-7.35.01-14.71.01-22.06 0-.01-22.86-.01-45.73 0-68.6h22.06c0 2.5 0 5 .01 7.49z" fill="#bd207c"/><path fill="#2b071a" opacity=".42" d="M224.89 127.89c.83 1.21.61 2.72.67 4.11-.04 6.66-.03 13.33-.02 19.99 4.81.02 9.62-.02 14.43.02.03 5.63.1 11.27-.05 16.9-4.78.17-9.57.06-14.36.08.01 10.12-.22 20.24.25 30.35-.85-2.34-.89-4.85-.85-7.31.1-7.98-.03-15.95.08-23.93 4.86-.16 9.71-.09 14.57-.1.01-5.04.02-10.09 0-15.13-4.86-.07-9.71.01-14.56-.12-.16-8.07.08-16.13-.15-24.2l-.01-.66z"/><path fill="#c1217c" d="M203.65 136.48c7.01-2.82 14.16-5.3 21.25-7.93.23 8.07-.01 16.13.15 24.2 4.85.13 9.7.05 14.56.12.02 5.04.01 10.09 0 15.13-4.86.01-9.71-.06-14.57.1-.11 7.98.02 15.95-.08 23.93-.04 2.46 0 4.97.85 7.31.56 1.48 1.63 2.84 3.21 3.29 4.1 1.1 8.38.3 12.55.09.59 5.78 1.14 11.56 1.68 17.34-9.95 2.39-21.03 4.8-30.79.49-6.05-2.55-8.79-9.23-9.08-15.41-.54-12.28.08-24.59-.33-36.88-3.38.09-6.75.07-10.13.06.14-5.17.06-10.34.09-15.5 3.54.06 7.09.04 10.64-.1.08-5.41.23-10.83 0-16.24z"/><path fill="#2e081d" opacity=".43" d="M203.13 135.79l.52.69c.23 5.41.08 10.83 0 16.24-3.55.14-7.1.16-10.64.1-.03 5.16.05 10.33-.09 15.5-.31-5.39-.14-10.79-.15-16.18 3.4-.21 6.8-.16 10.21-.14.1-5.4-.15-10.81.15-16.21z"/><path d="M88.24 156.4c12.99-5.51 28.02-7.5 41.71-3.53 8.74 2.43 14.74 10.85 15.15 19.77-.11 16.12-.06 32.23-.03 48.35-7.06.01-14.12.01-21.18 0-.01-2.05-.04-4.09-.07-6.14-.3.24-.89.71-1.19.94-6.52 5.94-15.93 8.55-24.56 6.66-4.82-.82-9.48-3.25-12.36-7.27-4.34-5.98-4.91-13.94-3.47-20.99 1.83-7.58 8.42-13.18 15.79-15.13 8.41-2.24 17.5-1.58 25.68 1.29.2-4.07-.3-9.32-4.73-10.96-8.42-2.88-17.41 0-25.52 2.66-1.65-5.24-3.5-10.42-5.22-15.65m16.26 39.97c-1.05 3-.44 7.03 2.59 8.67 5.25 2.93 12.11 1.15 16.33-2.79.58-2.5.14-5.14.23-7.69-3.27-1.67-6.83-2.97-10.56-2.76-3.32.01-7.18 1.29-8.59 4.57zm118.1 73.04c7.36-.02 14.71 0 22.07-.01-.03 22.95.07 45.91-.06 68.86-7.33-.09-14.67-.02-22-.04-.01-22.94.01-45.87-.01-68.81z" fill="#b81f7d"/><path fill="#cf237a" d="M399.2 162.08c5.66-9.78 18.57-13.53 28.83-9.14-1.33 6.95-2.35 13.96-3.5 20.95-5.82-.97-11.99-1.92-17.74-.13-3.61 1.09-6.38 4.15-7.07 7.86-.62 2.4-.75 4.89-.73 7.37.07 10.68-.01 21.36.03 32.04-7.33.06-14.67-.23-22 .17.16-22.88.02-45.76.06-68.64 7.36-.01 14.72-.01 22.08-.01-.01 3.18-.01 6.35.04 9.53z"/><path fill="#1c0411" opacity=".33" d="M256.34 152.15c7.55-.17 15.17-.57 22.69.23-7.34.35-14.68.09-22.03.17-.01 22.81.01 45.63.01 68.44 7.35.1 14.71-.22 22.06.2-7.44 1.12-15.09.34-22.61.4-.37-23.14-.12-46.29-.12-69.44z"/><path fill="#17040f" opacity=".35" d="M145.1 172.64c1.58 4.62.64 9.58.86 14.35-.18 11.53.4 23.09-.27 34.6-7.45.19-14.91.2-22.36-.01-.26-1.93-.48-3.86-.7-5.79.3-.23.89-.7 1.19-.94.03 2.05.06 4.09.07 6.14 7.06.01 14.12.01 21.18 0-.03-16.12-.08-32.23.03-48.35z"/><path fill="#0e0208" opacity=".26" d="M398.99 188.99c-.02-2.48.11-4.97.73-7.37.52 5.11-.02 10.24.13 15.36-.12 8.22.28 16.44-.18 24.65-4.9.43-9.81.17-14.71.26-2.66-.04-5.41.28-7.94-.69 7.33-.4 14.67-.11 22-.17-.04-10.68.04-21.36-.03-32.04z"/><path fill="#240617" opacity=".42" d="M368.01 245.68c.14-.2.44-.6.58-.81.62 8.02.14 16.08.26 24.12 4.73.34 9.67-.73 14.26.65-4.99.44-10.01.29-15.01.14-.18-8.03-.1-16.07-.09-24.1z"/><path fill="#34081f" opacity=".43" d="M394.87 245.49c4.57-.87 9.26-.51 13.87-.33.06.67.18 2.01.23 2.69-1.91.1-3.82.16-5.72.2.4 4.39-1.1 9.18 1.11 13.22-.29.1-.88.3-1.17.41-.52-4.7-.12-9.46-.06-14.18l4.87.12v-1.86c-4.38-.01-8.76.11-13.13-.27z"/><path fill="#4e0d2e" opacity=".62" d="M424.13 245.91c-.13-1.59 3.78-1.63 3.82-.07-1.27.3-2.55.32-3.82.07z"/><path fill="#c3217b" d="M346.7 253.4c7.14-2.47 14.14-5.33 21.31-7.72-.01 8.03-.09 16.07.09 24.1 5 .15 10.02.3 15.01-.14-.19 5.22-.13 10.45-.04 15.68-4.98-.49-9.98-.33-14.97-.16-.22 6.6-.04 13.2-.11 19.81 0 3.48-.23 7.03.75 10.42.43 1.76 1.4 3.62 3.26 4.2 4.18 1.22 8.56.36 12.82.16.36 5.8 1.18 11.56 1.56 17.36-9.96 2.36-21.04 4.8-30.79.45-6.43-2.76-9.05-10.07-9.1-16.6-.2-11.87 0-23.75-.1-35.62-3.44-.02-6.87-.02-10.3-.01-.01-5.24-.01-10.48-.01-15.72 3.52 0 7.05.01 10.57-.02.06-5.4-.02-10.79.05-16.19z"/><path fill="#ca227a" d="M394.87 245.49c4.37.38 8.75.26 13.13.27v1.86l-4.87-.12c-.06 4.72-.46 9.48.06 14.18l.11.46-2.94.37c.63-5 .61-10.04.24-15.06-1.88-.17-3.75-.36-5.62-.53l-.11-1.43z"/><path fill="#cc237a" d="M410.67 245.44c1.3.05 2.6.1 3.91.17 1.42 4.28 3.06 8.48 4.68 12.69 1.9-4.02 3.13-8.31 4.87-12.39 1.27.25 2.55.23 3.82-.07.13 5.52.16 11.05-.03 16.57-.65-.17-1.97-.51-2.63-.68-.15-4.16.61-8.28.75-12.42-.53.49-1.03 1-1.51 1.53-1.28 3.88-2.57 7.77-4.26 11.49-.49-.01-1.48-.05-1.97-.06-1.47-3.25-2.5-6.67-3.75-9.99-.45-1-.98-1.98-1.47-2.94-.18 4.35-.16 8.73.33 13.07l-2.73-.12c0-5.62 0-11.24-.01-16.85z"/><path fill="#891653" opacity=".82" d="M394.98 246.92c1.87.17 3.74.36 5.62.53.37 5.02.39 10.06-.24 15.06-.51-4.86-.25-9.75-.25-14.63-1.72.04-3.44.07-5.14.11l.01-1.07z"/><path fill="#3b0a23" opacity=".54" d="M413.08 249.34c.49.96 1.02 1.94 1.47 2.94-.88 3.32-.25 6.81-1.14 10.13-.49-4.34-.51-8.72-.33-13.07z"/><path fill="#80164d" opacity=".77" d="M424.53 250.84c.48-.53.98-1.04 1.51-1.53-.14 4.14-.9 8.26-.75 12.42.66.17 1.98.51 2.63.68l.21.05c-1.06-.03-2.11-.06-3.16-.08-.01-3.85.31-7.73-.44-11.54z"/><path fill="#b01e7e" d="M103.86 275.26c6.18-4.92 14.19-8.25 22.19-6.8 6.83.84 13.17 4.88 16.62 10.86 5.62 9.47 6.16 20.94 5.37 31.65-1 10.16-5.76 20.92-15.24 25.74-5.45-4.74-10.93-9.61-15.19-15.48 7.03-2.45 8.03-10.83 7.98-17.23-.23-5.63-.54-12.45-5.49-16.13-5.53-3.54-12.54-.25-16.58 4.08-1.8 4.78-.51 10.02-.84 15.01-7.12-6.53-13.54-13.77-20.72-20.22-.02-5.58.01-11.15-.02-16.72 7-.03 14.01-.02 21.02-.02.03 1.96.08 3.91.12 5.87.2-.15.59-.46.78-.61z"/><path fill="#b31f7e" d="M184.09 279.05c5.63-9.78 18.48-13.4 28.71-9.14-1.14 6.99-2.4 13.95-3.36 20.96-6.52-.89-13.7-2.3-19.84.83-4.19 2.01-5.55 7.03-5.52 11.33.01 11.74-.06 23.48.05 35.22-7.37-.38-14.75-.11-22.12-.16-.01-22.79-.01-45.58 0-68.37 7.36-.06 14.74.18 22.1-.15-.06 3.16-.03 6.32-.02 9.48z"/><path fill="#340926" opacity=".55" d="M81.21 269.27c7.49-.29 15.01-.27 22.51-.01.15 1.99.32 4 .14 6-.19.15-.58.46-.78.61-.04-1.96-.09-3.91-.12-5.87-7.01 0-14.02-.01-21.02.02.03 5.57 0 11.14.02 16.72-.01 25.42-.01 50.84.02 76.25-.04 1.82-.21 3.63-.4 5.44-.61-2.44-.63-4.97-.59-7.46.2-30.56-.24-61.14.22-91.7z"/><path fill="#0d0209" opacity=".23" d="M161.49 269.19c7.52-.12 15.18-.8 22.62.38-7.36.33-14.74.09-22.1.15-.01 22.79-.01 45.58 0 68.37 7.37.05 14.75-.22 22.12.16-2.63.97-5.46.76-8.2.75-4.81-.12-9.62.19-14.41-.26-.1-23.18-.04-46.37-.03-69.55z"/><path fill="#230516" opacity=".42" d="M368.1 285.16c4.99-.17 9.99-.33 14.97.16-4.61 1.32-9.48.43-14.2.63-.1 9.81.24 19.63-.13 29.44-.98-3.39-.75-6.94-.75-10.42.07-6.61-.11-13.21.11-19.81z"/><path fill="#aa1d7e" d="M81.96 286.74c7.18 6.45 13.6 13.69 20.72 20.22.33-4.99-.96-10.23.84-15.01.16 8.04.09 16.09.04 24.13 3.55 3.8 8.74 6.48 14.05 5.15 4.26 5.87 9.74 10.74 15.19 15.48l.11.1c-9.38 4.46-21.27 3.7-29.27-3.23-.1 8.89.01 17.78-.06 26.67-7.36 2.65-14.75 5.22-22 8.18.19-1.81.36-3.62.4-5.44-.03-25.41-.03-50.83-.02-76.25z"/><path fill="#3c0a28" opacity=".55" d="M326.01 288.78c1.51 5.27.86 10.8.98 16.2-.14 11.17.31 22.35-.24 33.5-7.53.07-15.05.02-22.58.03-.2-13.61-.48-27.27.16-40.86.93 13.41.17 26.89.4 40.33 7.11.02 14.22.03 21.33 0-.11-16.4 0-32.8-.05-49.2z"/><path fill="#0c020a" opacity=".28" d="M0 294.24c.28.29.83.87 1.1 1.16-.24 24.78-.03 49.56-.1 74.34-.01 34.76.01 69.51.01 104.26H0V294.24z"/><path fill="#0f0209" opacity=".28" d="M497.4 295.7l1.6-1.2V474h-1.01c.01-56.31.01-112.63.02-168.94-.12-3.11.46-6.36-.61-9.36z"/><path d="M1 369.74c.07-24.78-.14-49.56.1-74.34 13.49 13.18 26.56 26.78 40.05 39.95-.27 24.61-.03 49.24-.13 73.86C27.36 396.38 14.6 382.63 1 369.74zM64.8 433c24.43.08 48.88-.16 73.31.11 2.33 1.55 4.03 3.85 6.04 5.77 11.7 11.68 23.31 23.46 35.03 35.12h-73.77c-13.42-13.78-27.36-27.05-40.61-41z" fill="#a21c7f"/><path fill="#0f020c" opacity=".31" d="M41.15 335.35c.52 1.15.76 2.39.76 3.66-.02 31.33-.06 62.66.03 93.99l-.92-.01c.02-7.93.02-15.86 0-23.78.1-24.62-.14-49.25.13-73.86z"/><path fill="#13030c" opacity=".31" d="M457.06 343.99c.07-2.87-.37-5.9.79-8.61.33 31.2-.04 62.42.19 93.63.04 1.42-.17 2.85-.58 4.23-.7-5.08-.3-10.2-.36-15.3-.03-24.65.05-49.3-.04-73.95z"/><path fill="#9c1b80" d="M1 369.74c13.6 12.89 26.36 26.64 40.02 39.47.02 7.92.02 15.85 0 23.78l.92.01c7.62.01 15.24-.01 22.86 0 13.25 13.95 27.19 27.22 40.61 41H1.01c0-34.75-.02-69.5-.01-104.26z"/><path fill="#ba207d" d="M359.89 433.83c1.01-1.22 2.72-.72 4.1-.86 31.15.23 62.32-.31 93.47.27 5.06 6.64 11.63 11.92 17.31 18 7.2 7.7 15.4 14.49 21.98 22.76H319.84c13.39-13.35 26.69-26.79 40.05-40.17z"/></svg>