<?xml version="1.0" encoding="UTF-8"?>
<svg width="51px" height="49px" viewBox="0 0 51 49" version="1.1" xmlns="http://www.w3.org/2000/svg" xmlns:xlink="http://www.w3.org/1999/xlink">
    <!-- Generator: Sketch 46.2 (44496) - http://www.bohemiancoding.com/sketch -->
    <title>work</title>
    <desc>Created with Sketch.</desc>
    <defs>
        <linearGradient x1="0%" y1="0%" x2="100%" y2="100%" id="linearGradient-1">
            <stop stop-color="#CC3E92" offset="0%"></stop>
            <stop stop-color="#EC539A" offset="100%"></stop>
        </linearGradient>
    </defs>
    <g id="Page-1" stroke="none" stroke-width="1" fill="none" fill-rule="evenodd">
        <g id="Group" transform="translate(-70.000000, 0.000000)" fill-rule="nonzero" fill="url(#linearGradient-1)">
            <g id="work" transform="translate(70.000000, 0.000000)">
                <path d="M41.172041,31.63807 C43.1205,30.4350494 44.4241875,28.2632202 44.4241875,25.788821 L44.4241875,20.5460226 C44.4241875,17.1297346 41.9391328,14.2902551 38.7028242,13.7811996 L38.7028242,8.71746296 C38.7028242,8.30116461 38.3694316,7.96370988 37.9581445,7.96370988 L29.9801309,7.96370988 L29.9801309,4.93811111 C29.9801309,2.24714403 27.8172129,0.057872428 25.1586387,0.057872428 L13.5442852,0.057872428 C10.8857109,0.057872428 8.72279297,2.24714403 8.72279297,4.93811111 L8.72279297,7.96370988 L0.744679688,7.96370988 C0.333392578,7.96370988 0,8.30116461 0,8.71746296 L0,14.486356 L0,35.4795288 C0,35.8958272 0.333392578,36.2332819 0.744679688,36.2332819 L7.31252344,36.2332819 C7.72381055,36.2332819 8.05720313,35.8958272 8.05720313,35.4795288 C8.05720313,35.0633313 7.72381055,34.7257757 7.31252344,34.7257757 L1.48935938,34.7257757 L1.48935938,19.5046214 C2.78169141,21.4900288 4.82099414,22.9464177 7.22805469,23.4405514 L7.22805469,24.2678045 C7.22805469,25.5977613 8.2970625,26.6796934 9.61100977,26.6796934 C10.924957,26.6796934 11.9939648,25.5976605 11.9939648,24.2678045 L11.9939648,23.628284 L17.7464063,23.628284 C18.1576934,23.628284 18.4910859,23.2908292 18.4910859,22.8745309 C18.4910859,22.4582325 18.1576934,22.1207778 17.7464063,22.1207778 L11.9939648,22.1207778 L11.9939648,20.2755144 C11.9939648,19.859216 11.6605723,19.5217613 11.2492852,19.5217613 L7.97263477,19.5217613 C7.56134766,19.5217613 7.22795508,19.859216 7.22795508,20.2755144 L7.22795508,21.8985638 C3.90309375,21.0733272 1.48925977,18.0259506 1.48925977,14.486356 L1.48925977,9.47111523 L9.46727344,9.47111523 L12.1322227,9.47111523 L26.570502,9.47111523 L29.2353516,9.47111523 L37.2134648,9.47111523 L37.2134648,13.7144547 C37.1691387,13.7173786 37.1256094,13.7227222 37.0814824,13.7265535 C37.030582,13.7309897 36.979582,13.7349218 36.9289805,13.7404671 C36.8673223,13.7472222 36.8061621,13.7556914 36.745002,13.7641605 C36.6960938,13.7709156 36.6468867,13.7770658 36.5982773,13.7848292 C36.5361211,13.7948107 36.4745625,13.8067078 36.4130039,13.8184033 C36.3662871,13.8272757 36.3191719,13.8353416 36.2726543,13.8452222 C36.2092031,13.8587325 36.1466484,13.8741584 36.0838945,13.8894835 C36.040166,13.9001708 35.9961387,13.909749 35.952709,13.9212428 C35.8860703,13.938786 35.8204277,13.958749 35.7546855,13.9783086 C35.7161367,13.9898025 35.6770898,14.0001872 35.6389395,14.012286 C35.5648301,14.0357778 35.4918164,14.0617901 35.4188027,14.0879033 C35.3897168,14.0982881 35.3601328,14.107463 35.3311465,14.1183519 C35.1272461,14.1943724 34.9278281,14.2798704 34.7336895,14.3745432 C34.7134688,14.3844239 34.6938457,14.3953128 34.6738242,14.4053951 C34.597623,14.4435062 34.5219199,14.4820206 34.4474121,14.5228539 C34.4170313,14.5394897 34.3876465,14.557537 34.3575645,14.5745761 C34.2944121,14.61057 34.2311602,14.646463 34.1692031,14.6842716 C34.1354355,14.7049403 34.1026641,14.7270206 34.0692949,14.7481934 C34.0123184,14.7844897 33.9553418,14.8205844 33.8994609,14.8584938 C33.864498,14.8821872 33.8305313,14.9071914 33.7960664,14.9316914 C33.7432734,14.9690967 33.6902813,15.0063004 33.6384844,15.0451173 C33.6034219,15.0714321 33.5692559,15.0989568 33.5346914,15.1258765 C33.4850859,15.1646934 33.4352813,15.2035103 33.3867715,15.243537 C33.3521074,15.2721708 33.3183398,15.3018128 33.2842734,15.3311523 C33.237457,15.3715823 33.190541,15.4119115 33.1447207,15.4535514 C33.1108535,15.4843025 33.0778828,15.5160617 33.0446133,15.5475185 C33.0001875,15.5895617 32.9560605,15.6315041 32.9128301,15.6746564 C32.879959,15.7074239 32.8478848,15.7409979 32.8157109,15.7744712 C32.7737754,15.8181276 32.7321387,15.861784 32.6913984,15.9064486 C32.6597227,15.9411317 32.6288438,15.9764198 32.5979648,16.0118086 C32.5584199,16.0569774 32.5192734,16.1023477 32.4809238,16.1486255 C32.4506426,16.1851235 32.4210586,16.2220247 32.3915742,16.2591276 C32.3543203,16.3059095 32.3175645,16.352893 32.2817051,16.4005823 C32.252918,16.4387942 32.2247285,16.4772078 32.1967383,16.5160247 C32.161875,16.5642181 32.1276094,16.6129156 32.094041,16.6620165 C32.0669473,16.7017407 32.040252,16.7417675 32.0138555,16.7820967 C31.9813828,16.8318025 31.9496074,16.8820123 31.9184297,16.9325247 C31.8930293,16.9737613 31.8679277,17.0150988 31.8433242,17.0569403 C31.8132422,17.1080576 31.7840566,17.1597798 31.7552695,17.2117037 C31.7316621,17.2543519 31.7083535,17.297 31.685543,17.3402531 C31.6579512,17.3927819 31.6312559,17.4460165 31.604959,17.4993519 C31.5833438,17.5433107 31.5617285,17.5871687 31.5410098,17.6316317 C31.5158086,17.685572 31.4918027,17.7401173 31.4678965,17.794965 C31.4482734,17.8401337 31.4285508,17.8851008 31.4098242,17.9306728 C31.3872129,17.9860247 31.3656973,18.0419815 31.3444805,18.0981399 C31.3270488,18.1441152 31.3093184,18.1900905 31.2927832,18.2366708 C31.2725625,18.2937366 31.2537363,18.3514074 31.2350098,18.4090782 C31.2198691,18.4558601 31.2042305,18.5022387 31.1900859,18.549323 C31.1724551,18.6080021 31.156418,18.667286 31.1402812,18.7266708 C31.127332,18.7739568 31.1139844,18.8209403 31.1020312,18.8686296 C31.0868906,18.9291235 31.0737422,18.990323 31.0601953,19.0514218 C31.0497363,19.0988086 31.0385801,19.1459938 31.0290176,19.1936831 C31.0163672,19.257 31.0061074,19.3209218 30.9951504,19.3848436 C30.9872812,19.431323 30.9785156,19.4775 30.971543,19.5242819 C30.9614824,19.5917325 30.9540117,19.6598889 30.9459434,19.7278436 C30.9406641,19.7720041 30.9342891,19.8157613 30.9300059,19.8601235 C30.9225352,19.9355391 30.9178535,20.0115597 30.912873,20.0875802 C30.9103828,20.1254897 30.906498,20.1628951 30.9046055,20.2009053 C30.8989277,20.3151379 30.8959395,20.430177 30.8959395,20.545821 L30.8959395,22.0189465 C30.5501953,22.0765165 30.2014629,22.1097881 29.8526309,22.1184588 L29.8526309,20.2755144 C29.8526309,19.859216 29.5192383,19.5217613 29.1079512,19.5217613 L25.8314004,19.5217613 C25.4201133,19.5217613 25.0867207,19.859216 25.0867207,20.2755144 L25.0867207,22.1207778 L20.2277754,22.1207778 C19.8165879,22.1207778 19.4830957,22.4582325 19.4830957,22.8745309 C19.4830957,23.2907284 19.8164883,23.628284 20.2277754,23.628284 L25.0867207,23.628284 L25.0867207,24.2678045 C25.0867207,25.5977613 26.1557285,26.6796934 27.4695762,26.6796934 C28.7835234,26.6796934 29.8525312,25.5976605 29.8525312,24.2678045 L29.8525312,23.6254609 C30.2010645,23.6183025 30.5493984,23.5904753 30.8958398,23.5423827 L30.8958398,25.788821 C30.8958398,25.9031543 30.8988281,26.017286 30.9044062,26.1308128 C30.9065977,26.1750741 30.9108809,26.2187305 30.9138691,26.2627901 C30.9185508,26.3314506 30.9227344,26.4001111 30.9294082,26.4682675 C30.9347871,26.5229136 30.9423574,26.5767531 30.9489316,26.6310967 C30.9559043,26.6876584 30.9620801,26.7444218 30.970248,26.8008827 C30.9792129,26.8613765 30.9901699,26.9211646 31.0006289,26.9810535 C31.0091953,27.0300535 31.0169648,27.079356 31.026627,27.1280535 C31.0394766,27.1929835 31.0542188,27.2572078 31.0688613,27.3214321 C31.078623,27.3641811 31.0875879,27.4070309 31.0981465,27.449679 C31.1151797,27.5187428 31.1343047,27.587 31.1533301,27.6550556 C31.1636895,27.6916543 31.173252,27.7284547 31.184209,27.764751 C31.2062227,27.8386543 31.2302285,27.9115494 31.2547324,27.9843436 C31.2645937,28.0136831 31.273957,28.0432243 31.2842168,28.072463 C31.3123066,28.1524156 31.3422891,28.2314609 31.373168,28.3100021 C31.3813359,28.3306708 31.3890059,28.3515412 31.397373,28.3721091 C31.432834,28.4598251 31.4703867,28.5463313 31.5092344,28.6322325 C31.513916,28.6425165 31.5183984,28.6528004 31.5230801,28.6630844 C32.0895586,29.8973601 33.0076582,30.9339218 34.1480859,31.63807 C32.0791992,32.2331276 30.1961836,33.3100185 28.6442695,34.7258765 L9.79449023,34.7258765 C9.38320312,34.7258765 9.04981055,35.0633313 9.04981055,35.4796296 C9.04981055,35.895928 9.38320312,36.2333827 9.79449023,36.2333827 L27.2210508,36.2333827 C25.4132402,38.4624794 24.3205254,41.2405576 24.3205254,44.1978992 L24.3205254,48.1885761 C24.3205254,48.6047737 24.653918,48.9423292 25.0652051,48.9423292 L30.7371621,48.9423292 C31.1484492,48.9423292 31.4818418,48.6048745 31.4818418,48.1885761 C31.4818418,47.7722778 31.1484492,47.434823 30.7371621,47.434823 L25.8097852,47.434823 L25.8097852,44.1977984 C25.8097852,41.187323 27.0789082,38.3087243 29.3833711,36.0925329 C29.4063809,36.0704527 29.4298887,36.0488765 29.4530977,36.0269979 C29.542248,35.9426091 29.6326934,35.8596317 29.7241348,35.777965 C29.7313066,35.7715123 29.7384785,35.7650597 29.7455508,35.7588086 C29.9259434,35.5983992 30.110918,35.4438374 30.2997773,35.2944177 C30.334043,35.2673971 30.3686074,35.2408807 30.4030723,35.2142634 C30.4535742,35.175144 30.5044746,35.1365288 30.5555742,35.098216 C30.6059766,35.0605082 30.6563789,35.0228004 30.7072793,34.9858992 C30.7287949,34.9701708 30.7506094,34.9550473 30.7722246,34.9395206 C31.830375,34.1825412 32.9981953,33.5953477 34.2186094,33.2016337 L35.427668,35.5792428 L33.8124023,42.6764794 C33.7521387,42.9411399 33.8373047,43.2182016 34.0353281,43.4016996 L37.157584,46.2941111 C37.2998262,46.4259877 37.4800195,46.4918251 37.6603125,46.4918251 C37.8406055,46.4918251 38.0206992,46.4258868 38.1631406,46.2941111 L41.2853965,43.4016996 C41.4833203,43.2183025 41.5685859,42.9412407 41.5083223,42.6764794 L39.8930566,35.5792428 L41.1021152,33.2016337 C42.8854219,33.77693 44.5570664,34.7650967 45.9372539,36.0925329 C48.2416172,38.3086235 49.5108398,41.1872222 49.5108398,44.1976975 L49.5108398,47.4346214 L33.2192285,47.4346214 C32.808041,47.4346214 32.4745488,47.7720761 32.4745488,48.1883745 C32.4745488,48.604572 32.8079414,48.9421276 33.2192285,48.9421276 L50.2553203,48.9421276 C50.6665078,48.9421276 51,48.6046728 51,48.1883745 L51,44.1976975 C51,38.3744609 46.7636133,33.2461975 41.172041,31.63807 Z M8.71711523,22.8039547 L8.71711523,21.0291667 L8.71721484,21.0291667 L10.5044063,21.0291667 L10.5044063,22.87443 L10.5044063,24.2677037 C10.5044063,24.7664753 10.1034785,25.1721872 9.61071094,25.1721872 C9.11794336,25.1721872 8.71701563,24.7663745 8.71701563,24.2677037 L8.71701563,22.8039547 L8.71711523,22.8039547 Z M25.8258223,7.96370988 L12.8769023,7.96370988 L12.8769023,5.47842181 C12.8769023,4.79111111 13.4293359,4.23184568 14.1084727,4.23184568 L24.5943516,4.23184568 C25.2733887,4.23184568 25.8259219,4.79101029 25.8259219,5.47842181 L25.8259219,7.96370988 L25.8258223,7.96370988 Z M28.4906719,7.96370988 L27.315082,7.96370988 L27.315082,5.47842181 C27.315082,3.95992593 26.0945684,2.72444033 24.594252,2.72444033 L14.108373,2.72444033 C12.6081563,2.72444033 11.387543,3.9598251 11.387543,5.47842181 L11.387543,7.9638107 L10.2119531,7.9638107 L10.2119531,4.93811111 C10.2119531,3.07832922 11.706791,1.56527778 13.5441855,1.56527778 L25.1584395,1.56527778 C26.995834,1.56527778 28.4906719,3.07832922 28.4906719,4.93811111 L28.4906719,7.96370988 Z M28.3637695,22.8745309 L28.3637695,24.2679053 C28.3637695,24.766677 27.9628418,25.1723889 27.4700742,25.1723889 C26.9773066,25.1723889 26.5764785,24.7665761 26.5764785,24.2679053 L26.5764785,22.8746317 L26.5764785,21.0292675 L28.3636699,21.0292675 L28.3636699,22.8745309 L28.3637695,22.8745309 Z M32.3887852,20.5427963 C32.3887852,17.6926296 34.6079824,15.3572654 37.389375,15.2140967 C37.479123,15.2094588 37.5693691,15.2071399 37.6602129,15.2071399 C37.7449805,15.2071399 37.82925,15.2096605 37.9131211,15.2136934 C37.9160098,15.2137942 37.9186992,15.2138951 37.9215879,15.2139959 C37.9227832,15.2140967 37.9238789,15.2138951 37.9250742,15.2139959 C37.9270664,15.2140967 37.9291582,15.2139959 37.9311504,15.2140967 C40.7123438,15.3572654 42.9316406,17.6926296 42.9316406,20.5427963 L42.9316406,22.3381523 C40.5295605,21.88707 39.5575723,19.4149897 39.5143418,19.3018663 C39.4115449,19.0273251 39.1597324,18.8399959 38.8703672,18.8190247 C38.5808027,18.7986584 38.305084,18.9508004 38.1645352,19.2075967 C38.097,19.3312058 36.5439902,22.08307 32.3886855,22.382716 L32.3886855,20.5427963 L32.3887852,20.5427963 Z M39.9593965,42.5865453 L37.6602129,44.7164321 L35.3610293,42.5865453 L36.8070586,36.2333827 L38.5133672,36.2333827 L39.9593965,42.5865453 Z M35.7013945,32.8235473 C35.7663398,32.8113477 35.8314844,32.8002572 35.8966289,32.7890658 C35.9428477,32.7812016 35.9892656,32.7734383 36.0354844,32.766179 C36.1167656,32.7532737 36.1981465,32.7410741 36.279627,32.7298827 C36.3859102,32.715465 36.4921934,32.7024588 36.5985762,32.6910658 C36.6414082,32.686428 36.684041,32.6820926 36.726873,32.6779588 C36.7372324,32.6769506 36.7474922,32.6760432 36.7578516,32.675035 C36.8683184,32.6646502 36.9789844,32.6559794 37.0895508,32.648821 C37.1340762,32.6459979 37.1784023,32.6428724 37.2230273,32.6405535 C37.2232266,32.6405535 37.2234258,32.6405535 37.223625,32.6405535 C37.313373,32.6358148 37.4031211,32.6333951 37.4928691,32.6307737 C37.5486504,32.6321852 37.6040332,32.6351091 37.6603125,32.6351091 C37.7164922,32.6351091 37.771875,32.6321852 37.8276562,32.6307737 C37.9175039,32.6333951 38.0073516,32.6358148 38.0972988,32.6405535 C38.1260859,32.6420658 38.154873,32.6432757 38.1836602,32.6450905 C38.3141484,32.6530556 38.4444375,32.663642 38.5749258,32.6759424 C38.6235352,32.6805802 38.6722441,32.6856214 38.7208535,32.6908642 C38.8289297,32.7024588 38.9370059,32.7156667 39.0448828,32.730286 C39.1245703,32.7412757 39.2042578,32.7532737 39.2837461,32.7658765 C39.3306621,32.7732366 39.3776777,32.7812016 39.4245937,32.7890658 C39.4894395,32.8001564 39.5543848,32.8111461 39.6191309,32.8233457 L38.6520234,34.7257757 L36.6688008,34.7257757 L35.7013945,32.8235473 Z M37.9686035,31.1179239 C37.9530645,31.1177222 37.9377246,31.1170165 37.9221855,31.1177222 C37.9035586,31.1186296 37.8849316,31.1198395 37.8663047,31.1211502 C37.860627,31.1215535 37.8550488,31.121856 37.8494707,31.1221584 C37.7898047,31.1205453 37.7303379,31.1182263 37.6704727,31.1174198 C37.6636992,31.1174198 37.6568262,31.1174198 37.6501523,31.1174198 C37.5902871,31.1182263 37.5307207,31.1205453 37.4710547,31.1221584 C34.7535117,31.0235535 32.5290352,28.7787284 32.3922715,26.0545905 C32.3879883,25.966572 32.3855977,25.8779486 32.3855977,25.788821 L32.3855977,23.8932469 C35.7526934,23.6843416 37.7333262,22.079642 38.7103945,20.9749239 C39.3984961,22.0625021 40.7319668,23.5740412 42.9349277,23.8657222 L42.9349277,25.7889218 C42.9349277,28.6278971 40.7340586,30.9556996 37.9686035,31.1179239 Z" id="Shape"></path>
            </g>
        </g>
    </g>
</svg>