<?xml version="1.0" encoding="UTF-8"?>
<svg width="42px" height="45px" viewBox="0 0 42 45" version="1.1" xmlns="http://www.w3.org/2000/svg" xmlns:xlink="http://www.w3.org/1999/xlink">
    <!-- Generator: Sketch 46.2 (44496) - http://www.bohemiancoding.com/sketch -->
    <title>idea</title>
    <desc>Created with Sketch.</desc>
    <defs>
        <linearGradient x1="0%" y1="0%" x2="100%" y2="100%" id="linearGradient-1">
            <stop stop-color="#CC3E92" offset="0%"></stop>
            <stop stop-color="#EC539A" offset="100%"></stop>
        </linearGradient>
    </defs>
    <g id="Page-1" stroke="none" stroke-width="1" fill="none" fill-rule="evenodd">
        <g id="idea" fill-rule="nonzero" fill="url(#linearGradient-1)">
            <path d="M21,6.66666667 C13.12584,6.66666667 6.72,13.0216667 6.72,20.8333333 C6.72,26.76 10.40844,32.01 15.96,34.0833333 L15.96,41.6666667 C15.96,42.1275 16.33548,42.5 16.8,42.5 L17.64,42.5 L17.64,44.1666667 C17.64,44.6275 18.01548,45 18.48,45 L23.52,45 C23.98452,45 24.36,44.6275 24.36,44.1666667 L24.36,42.5 L25.2,42.5 C25.66452,42.5 26.04,42.1275 26.04,41.6666667 L26.04,34.0833333 C31.59156,32.01 35.28,26.76 35.28,20.8333333 C35.28,13.0216667 28.87416,6.66666667 21,6.66666667 Z M23.52,40.8333333 C23.05548,40.8333333 22.68,41.2058333 22.68,41.6666667 L22.68,43.3333333 L19.32,43.3333333 L19.32,41.6666667 C19.32,41.2058333 18.94452,40.8333333 18.48,40.8333333 L17.64,40.8333333 L17.64,36.6666667 L24.36,36.6666667 L24.36,40.8333333 L23.52,40.8333333 Z M24.93792,32.7016667 C24.59268,32.8141667 24.36,33.1341667 24.36,33.4933333 L24.36,35 L17.64,35 L17.64,33.4933333 C17.64,33.1333333 17.40732,32.8141667 17.06208,32.7016667 C11.8818,31.0116667 8.4,26.2416667 8.4,20.8333333 C8.4,13.9408333 14.05236,8.33333333 21,8.33333333 C27.94764,8.33333333 33.6,13.9408333 33.6,20.8333333 C33.6,26.2416667 30.1182,31.0116667 24.93792,32.7016667 Z M21,5 C20.53548,5 20.16,4.6275 20.16,4.16666667 L20.16,0.833333333 C20.16,0.3725 20.53548,-1.77635684e-15 21,-1.77635684e-15 C21.46452,-1.77635684e-15 21.84,0.3725 21.84,0.833333333 L21.84,4.16666667 C21.84,4.6275 21.46452,5 21,5 Z M41.16,20 C41.62452,20 42,20.3725 42,20.8333333 C42,21.2941667 41.62452,21.6666667 41.16,21.6666667 L37.8,21.6666667 C37.33548,21.6666667 36.96,21.2941667 36.96,20.8333333 C36.96,20.3725 37.33548,20 37.8,20 L41.16,20 Z M4.2,20 C4.66452,20 5.04,20.3725 5.04,20.8333333 C5.04,21.2941667 4.66452,21.6666667 4.2,21.6666667 L0.84,21.6666667 C0.37548,21.6666667 8.8817842e-16,21.2941667 8.8817842e-16,20.8333333 C8.8817842e-16,20.3725 0.37548,20 0.84,20 L4.2,20 Z M34.66176,6.10166667 C34.98936,5.77666667 35.52108,5.77583333 35.84952,6.10166667 C36.17796,6.4275 36.17796,6.95416667 35.84952,7.28 L33.474,9.63666667 C33.3102,9.79916667 33.09516,9.88083333 32.88012,9.88083333 C32.66508,9.88083333 32.45004,9.79916667 32.28624,9.63666667 C31.9578,9.31083333 31.9578,8.78416667 32.28624,8.45833333 L34.66176,6.10166667 Z M8.526,32.03 C8.85444,31.7041667 9.38532,31.7041667 9.71376,32.03 C10.0422,32.3558333 10.0422,32.8825 9.71376,33.2083333 L7.33824,35.565 C7.17444,35.7275 6.9594,35.8091667 6.74436,35.8091667 C6.52932,35.8091667 6.31428,35.7275 6.15048,35.565 C5.82204,35.2391667 5.82204,34.7125 6.15048,34.3866667 L8.526,32.03 Z M33.474,32.03 L35.84952,34.3866667 C36.17796,34.7125 36.17796,35.2391667 35.84952,35.565 C35.68572,35.7275 35.47068,35.8091667 35.25564,35.8091667 C35.0406,35.8091667 34.82556,35.7275 34.66176,35.565 L32.28624,33.2083333 C31.9578,32.8825 31.9578,32.3558333 32.28624,32.03 C32.61468,31.7041667 33.14556,31.7041667 33.474,32.03 Z M8.526,9.63666667 L6.15048,7.28 C5.82204,6.95416667 5.82204,6.4275 6.15048,6.10166667 C6.47892,5.77583333 7.0098,5.77583333 7.33824,6.10166667 L9.71376,8.45833333 C10.0422,8.78416667 10.0422,9.31083333 9.71376,9.63666667 C9.54996,9.79916667 9.33492,9.88083333 9.11988,9.88083333 C8.90484,9.88083333 8.6898,9.79916667 8.526,9.63666667 Z M21,10.8333333 C15.44172,10.8333333 10.92,15.3191667 10.92,20.8333333 C10.92,21.2941667 11.29548,21.6666667 11.76,21.6666667 C12.22452,21.6666667 12.6,21.2941667 12.6,20.8333333 C12.6,16.2383333 16.36824,12.5 21,12.5 C21.46452,12.5 21.84,12.1275 21.84,11.6666667 C21.84,11.2058333 21.46452,10.8333333 21,10.8333333 Z" id="Combined-Shape"></path>
        </g>
    </g>
</svg>