<?xml version="1.0" encoding="UTF-8" standalone="no"?>
<svg
   xmlns:dc="http://purl.org/dc/elements/1.1/"
   xmlns:cc="http://creativecommons.org/ns#"
   xmlns:rdf="http://www.w3.org/1999/02/22-rdf-syntax-ns#"
   xmlns:svg="http://www.w3.org/2000/svg"
   xmlns="http://www.w3.org/2000/svg"
   xmlns:sodipodi="http://sodipodi.sourceforge.net/DTD/sodipodi-0.dtd"
   xmlns:inkscape="http://www.inkscape.org/namespaces/inkscape"
   width="46pt"
   height="49pt"
   viewBox="0 0 46 49"
   version="1.1"
   id="svg3461"
   inkscape:version="0.91 r13725"
   sodipodi:docname="ab2.svg">
  <metadata
     id="metadata3486">
    <rdf:RDF>
      <cc:Work
         rdf:about="">
        <dc:format>image/svg+xml</dc:format>
        <dc:type
           rdf:resource="http://purl.org/dc/dcmitype/StillImage" />
      </cc:Work>
    </rdf:RDF>
  </metadata>
  <defs
     id="defs3484" />
  <sodipodi:namedview
     pagecolor="#ffffff"
     bordercolor="#666666"
     borderopacity="1"
     objecttolerance="10"
     gridtolerance="10"
     guidetolerance="10"
     inkscape:pageopacity="0"
     inkscape:pageshadow="2"
     inkscape:window-width="1280"
     inkscape:window-height="676"
     id="namedview3482"
     showgrid="false"
     inkscape:zoom="8"
     inkscape:cx="45.073715"
     inkscape:cy="31.849852"
     inkscape:window-x="0"
     inkscape:window-y="0"
     inkscape:window-maximized="1"
     inkscape:current-layer="svg3461" />
  <g
     id="#a51a63de"
     transform="translate(0,-0.3)">
    <path
       d="m 22.1,0 1.65,0 C 23.97,1.75 24.1,3.5 24.23,5.26 23.44,5.27 22.65,5.28 21.86,5.3 21.93,3.53 22.01,1.76 22.1,0 Z"
       id="path3464"
       inkscape:connector-curvature="0"
       style="opacity:0.87000002;fill:#a51a63" />
    <path
       d="m 6.49,6.66 c 2.23,-1.08 3.73,2.03 5,3.41 -2.16,1.89 -4.34,-1.56 -5,-3.41 z"
       id="path3466"
       inkscape:connector-curvature="0"
       style="opacity:0.87000002;fill:#a51a63" />
    <path
       d="m 34.22,10.31 c 1.52,-1.2500002 2.96,-4.83 5.3,-3.63 -0.76,2.1199998 -2.73,4.81 -5.3,3.63 z"
       id="path3468"
       inkscape:connector-curvature="0"
       style="opacity:0.87000002;fill:#a51a63" />
    <path
       d="M 7.55,23.93 C 6.6,15.24 14.3,6.99 23,7.17 c 8.72,-0.19 16.44,8.11 15.45,16.82 -0.26,6.08 -4.74,10.87 -9.92,13.51 0,2.55 0.01,5.1 0.01,7.66 -0.88,1.28 -1.74,2.57 -2.65,3.84 l -5.91,0 C 19.17,47.69 18.35,46.38 17.49,45.1 17.47,42.57 17.47,40.03 17.46,37.49 12.27,34.85 7.78,30.03 7.55,23.93 m 2.42,2.11 c 0.97,4.79 5.04,8.02 9.3,9.89 0.09,0.51 0.28,1.51 0.38,2.01 2.23,-0.01 4.47,-0.01 6.7,0 0.1,-0.5 0.28,-1.5 0.38,-2.01 4.62,-1.95 8.84,-5.7 9.53,-10.92 C 38.04,16.69 30.3,8.28 21.88,9.27 13.88,9.72 7.67,18.31 9.97,26.04 m 9.52,14.04 c -0.02,1.28 -0.03,2.56 -0.05,3.84 0.42,0.25 1.26,0.76 1.68,1.02 0.07,0.52 0.19,1.56 0.26,2.07 0.71,-0.01 2.14,-0.04 2.85,-0.05 0.69,-1.16 1.44,-2.29 2.23,-3.39 0.03,-1.16 0.06,-2.32 0.08,-3.49 -2.35,0 -4.7,0 -7.05,0 z"
       id="path3470"
       inkscape:connector-curvature="0"
       style="opacity:0.87000002;fill:#a51a63" />
    <path
       d="m 19.17,12.39 c 1.71,-0.61 4.5,-1.61 5.11,0.86 -5.45,0.29 -10.46,4.18 -10.44,9.95 -0.4,0.16 -1.21,0.47 -1.61,0.62 -0.91,-4.88 2.41,-9.76 6.94,-11.43 z"
       id="path3472"
       inkscape:connector-curvature="0"
       style="opacity:0.87000002;fill:#a51a63" />
    <path
       d="M 0,22.28 C 1.79,21.89 3.61,21.64 5.41,21.34 5.48,21.93 5.62,23.11 5.69,23.7 3.79,23.65 1.9,23.58 0,23.49 l 0,-1.21 z"
       id="path3474"
       inkscape:connector-curvature="0"
       style="opacity:0.87000002;fill:#a51a63" />
    <path
       d="m 40.53,21.57 c 1.112605,-0.478046 2.035654,0.394241 4.17,0.71 l 0,1.07 c -1.88,0.25 -2.48,0.34 -4.38,0.43 0.05,-0.55 0.16,-1.66 0.21,-2.21 z"
       id="path3476"
       inkscape:connector-curvature="0"
       style="opacity:0.87000002;fill:#a51a63"
       sodipodi:nodetypes="ccccc" />
    <path
       d="m 6.74,39.65 c -0.38,-2.77 2.22,-5.33 4.97,-4.97 -1.2,2.06 -2.92,3.76 -4.97,4.97 z"
       id="path3478"
       inkscape:connector-curvature="0"
       style="opacity:0.87000002;fill:#a51a63" />
    <path
       d="m 34.3,34.63 c 0.559003,-0.05063 1.31338,-0.98216 1.731027,-0.635063 1.450642,1.205594 3.23011,2.438116 2.958973,4.655063 -2.08,-1.2 -3.54,-1.89 -4.69,-4.02 z"
       id="path3480"
       inkscape:connector-curvature="0"
       style="opacity:0.87000002;fill:#a51a63"
       sodipodi:nodetypes="cscc" />
  </g>
</svg>
