<?xml version="1.0" encoding="UTF-8" standalone="no"?>
<svg
   xmlns:dc="http://purl.org/dc/elements/1.1/"
   xmlns:cc="http://creativecommons.org/ns#"
   xmlns:rdf="http://www.w3.org/1999/02/22-rdf-syntax-ns#"
   xmlns:svg="http://www.w3.org/2000/svg"
   xmlns="http://www.w3.org/2000/svg"
   xmlns:sodipodi="http://sodipodi.sourceforge.net/DTD/sodipodi-0.dtd"
   xmlns:inkscape="http://www.inkscape.org/namespaces/inkscape"
   width="48pt"
   height="48pt"
   viewBox="0 0 48 48"
   version="1.1"
   id="svg3561"
   inkscape:version="0.91 r13725"
   sodipodi:docname="ab3.svg">
  <metadata
     id="metadata3570">
    <rdf:RDF>
      <cc:Work
         rdf:about="">
        <dc:format>image/svg+xml</dc:format>
        <dc:type
           rdf:resource="http://purl.org/dc/dcmitype/StillImage" />
      </cc:Work>
    </rdf:RDF>
  </metadata>
  <defs
     id="defs3568" />
  <sodipodi:namedview
     pagecolor="#ffffff"
     bordercolor="#666666"
     borderopacity="1"
     objecttolerance="10"
     gridtolerance="10"
     guidetolerance="10"
     inkscape:pageopacity="0"
     inkscape:pageshadow="2"
     inkscape:window-width="1280"
     inkscape:window-height="676"
     id="namedview3566"
     showgrid="false"
     inkscape:zoom="8"
     inkscape:cx="49.946471"
     inkscape:cy="30.576646"
     inkscape:window-x="0"
     inkscape:window-y="0"
     inkscape:window-maximized="1"
     inkscape:current-layer="svg3561" />
  <g
     id="#cb217bf6">
    <path
       d="m 26.81,0 11.68,0 c 3.33,2.94 6.34,6.23 9.51,9.35 l 0,11.59 c -1.46,5.2 1.01,11.48 -3.3,15.78 -3.51,5.04 -10.14,4.32 -15.4,3.36 -2.55,2.62 -5.14,5.19 -7.57,7.92 l -0.55,0 C 14.19,40.87 7.18,33.75 0,26.81 L 0,26.29 C 6.85,19.76 13.65,13.16 20.09,6.23 12.94,6.18 6.51,9.36 0.04,11.93 5.13,5.62 14.04,4.97 21.54,4.33 23.6,3.32 25.05,1.43 26.81,0 m 0.27,1.78 -2.64,2.97 c 2.91,0.88 5.74,2 8.54,3.2 2.03,1.16 4.62,-1.33 6.33,0.76 2.72,2.2 -0.22,6.36 -3.24,5.71 -2,-1.52 -2.74,-4.3 -5.06,-5.43 -2.58,-1.27 -5.41,-1.87 -8.16,-2.65 -4.86,4.65 -9.67,9.37 -14.31,14.24 -1.27,0.98 0.34,2.13 0.97,2.89 5.22,5.12 10.29,10.4 15.55,15.48 0.85,1.11 2.2,0.97 3.27,0.28 -1.89,-2.79 -4.15,-5.68 -4.03,-9.24 0.09837,-2.082145 0.306479,-7.432069 0.306479,-7.432069 0,0 0,0 1.943521,0.04207 -0.32,5.07 -1.26,10.74 2.66,14.78 C 35.12,32.19 40.56,26.45 46.04,20.81 46.48,17.31 46.46,13.7 46.06,10.2 43.53,7.25 40.76,4.49 37.83,1.94 34.28,1.41 30.66,1.77 27.08,1.78 m 9.5,7.01 c 0,0.7335212 -1.475174,0.8519006 -1.531576,1.584242 -0.07611,0.988203 0.730759,2.31204 1.714966,2.428978 C 37.66408,12.910236 38.73351,11.913794 38.81,11.01 38.88673,10.103365 37.868475,9.6016949 37.088475,8.8916949 M 6.13,22.73 c -1.19,1.32 -2.4,2.63 -3.58,3.97 6.28,6.2 12.53,12.43 18.71,18.73 1.34,-1.17 2.66,-2.37 3.98,-3.56 C 19.03,35.35 12.7,28.9 6.13,22.73 m 25.44,15.85 c 3.67,0.28 8.15,1 10.93,-2.06 3.32,-3.07 3.91,-7.9 2.75,-12.09 -4.67,4.6 -9.74,8.89 -13.68,14.15 z"
       id="path3564"
       inkscape:connector-curvature="0"
       style="opacity:0.95999995;fill:#cb217b"
       sodipodi:nodetypes="ccccccccccccccccccccccccccccccccccaaacccccccccc" />
  </g>
</svg>
