<?xml version="1.0" encoding="UTF-8"?>
<svg width="48px" height="48px" viewBox="0 0 48 48" version="1.1" xmlns="http://www.w3.org/2000/svg" xmlns:xlink="http://www.w3.org/1999/xlink">
    <!-- Generator: Sketch 46.2 (44496) - http://www.bohemiancoding.com/sketch -->
    <title>price</title>
    <desc>Created with Sketch.</desc>
    <defs>
        <linearGradient x1="18.0896198%" y1="0%" x2="100%" y2="100%" id="linearGradient-1">
            <stop stop-color="#CC3E92" offset="0%"></stop>
            <stop stop-color="#EC539A" offset="100%"></stop>
        </linearGradient>
    </defs>
    <g id="Page-1" stroke="none" stroke-width="1" fill="none" fill-rule="evenodd">
        <g id="price" fill-rule="nonzero" fill="url(#linearGradient-1)">
            <path d="M47.5065263,9.33810526 L38.1465263,0 L26.3536842,0 L21.7061053,4.63242105 C10.1498947,3.66821053 0.832,10.1692632 0.701473684,10.2627368 C0.323368421,10.5322105 0.234947368,11.0585263 0.506105263,11.4374737 C0.670315789,11.6665263 0.928842105,11.7894737 1.19157895,11.7894737 C1.36084211,11.7894737 1.53178947,11.7381053 1.68,11.632 C1.79705263,11.5486316 9.85852632,5.92589474 20.1061053,6.22652632 L5.05178947,21.232 L5.05852632,21.2387368 L0,26.2846316 L21.1755789,47.5065263 L29.6303158,39.0745263 C31.3667368,39.984 33.3869474,40.4311579 35.3852632,40.4303158 C38.3334737,40.4303158 41.2252632,39.472 43.0492632,37.648 C49.2530526,31.4433684 46.7907368,24.6374737 45.9486316,22.7991579 L47.5056842,21.2454737 L47.5056842,9.33810526 L47.5065263,9.33810526 Z M37.4509474,1.68421053 L45.8223158,10.0370526 L45.8223158,20.5465263 L29.3692632,36.9456842 C25.9301053,34.48 24.8833684,29.8534737 26.4277895,23.7869474 C26.5431579,23.3364211 26.2703158,22.8774737 25.8197895,22.7629474 C25.3675789,22.6425263 24.9111579,22.9204211 24.7957895,23.3709474 C22.6155789,31.9326316 25.5452632,36.1549474 28.1633684,38.1473684 L26.2324211,40.0724211 L7.44084211,21.2412632 L22.3292632,6.39157895 C25.8644211,6.79578947 29.5974737,7.96294737 33.3153684,10.3216842 C33.2825263,10.5077895 33.2581053,10.6972632 33.2581053,10.8926316 C33.2581053,12.72 34.7444211,14.2063158 36.5717895,14.2063158 C38.3991579,14.2063158 39.8863158,12.72 39.8863158,10.8926316 C39.8863158,9.06526316 38.3991579,7.57894737 36.5717895,7.57894737 C35.5477895,7.57894737 34.6425263,8.05557895 34.0345263,8.78821053 C30.5911579,6.63494737 27.1402105,5.43494737 23.8298947,4.896 L27.0492632,1.68421053 L37.4509474,1.68421053 Z M35.2117895,11.6210526 C35.584,11.9006316 36.112,11.8256842 36.3898947,11.4526316 C36.6694737,11.0812632 36.5936842,10.5532632 36.2214737,10.2745263 C35.9612632,10.08 35.7002105,9.90821053 35.44,9.72547368 C35.7338947,9.44 36.1322105,9.26315789 36.5717895,9.26315789 C37.4703158,9.26315789 38.2021053,9.99410526 38.2021053,10.8934737 C38.2021053,11.7911579 37.4711579,12.5229474 36.5717895,12.5229474 C35.8955789,12.5229474 35.3153684,12.1086316 35.0686316,11.5208421 C35.1166316,11.5553684 35.1646316,11.5848421 35.2117895,11.6210526 Z M2.38147368,26.288 L6.24842105,22.4311579 L25.0458947,41.2690526 L21.1789474,45.1258947 L2.38147368,26.288 Z M41.8585263,36.4572632 C39.6892632,38.6248421 34.8101053,39.6134737 30.8858947,37.8223158 L44.6753684,24.0690526 C45.5132632,26.1541053 46.8690526,31.4458947 41.8585263,36.4572632 Z" id="Shape"></path>
        </g>
    </g>
</svg>