<?xml version="1.0" encoding="UTF-8"?>
<svg width="51px" height="49px" viewBox="0 0 51 49" version="1.1" xmlns="http://www.w3.org/2000/svg" xmlns:xlink="http://www.w3.org/1999/xlink">
    <!-- Generator: Sketch 46.2 (44496) - http://www.bohemiancoding.com/sketch -->
    <title>partner</title>
    <desc>Created with Sketch.</desc>
    <defs>
        <linearGradient x1="11.8040966%" y1="0%" x2="102.163756%" y2="100%" id="linearGradient-1">
            <stop stop-color="#CC3E92" offset="0%"></stop>
            <stop stop-color="#EC539A" offset="100%"></stop>
        </linearGradient>
    </defs>
    <g id="Page-1" stroke="none" stroke-width="1" fill="none" fill-rule="evenodd">
        <g id="Group" fill-rule="nonzero" fill="url(#linearGradient-1)">
            <g id="partner">
                <path d="M45.421875,16.719284 L44.0464688,16.719284 C45.3748594,15.5360247 46.21875,13.8075144 46.21875,11.8797778 C46.21875,8.32193416 43.3587656,5.42710288 39.84375,5.42710288 C36.3287344,5.42710288 33.46875,8.32193416 33.46875,11.8797778 C33.46875,13.8075144 34.3126406,15.5360247 35.6410312,16.719284 L34.265625,16.719284 C31.1896875,16.719284 28.6875,19.2527654 28.6875,22.3653745 L28.6875,26.3982963 L25.5,26.3982963 L22.3125,26.3982963 L22.3125,22.3653745 C22.3125,19.2527654 19.8103125,16.719284 16.734375,16.719284 L15.3589688,16.719284 C16.6873594,15.5360247 17.53125,13.8075144 17.53125,11.8797778 C17.53125,8.32193416 14.6712656,5.42710288 11.15625,5.42710288 C7.64123438,5.42710288 4.78125,8.32193416 4.78125,11.8797778 C4.78125,13.8075144 5.62514063,15.5360247 6.95353125,16.719284 L5.578125,16.719284 C2.5021875,16.719284 0,19.2527654 0,22.3653745 L0,33.6575556 C0,34.1035967 0.357,34.4641399 0.796875,34.4641399 L4.78125,34.4641399 L4.78125,48.1760741 C4.78125,48.6221152 5.13825,48.9826584 5.578125,48.9826584 L11.15625,48.9826584 L16.734375,48.9826584 C17.17425,48.9826584 17.53125,48.6221152 17.53125,48.1760741 L17.53125,32.0234156 C18.1990313,32.5355967 19.0214063,32.8509712 19.921875,32.8509712 L25.5,32.8509712 L31.078125,32.8509712 C31.9785938,32.8509712 32.8009688,32.5355967 33.46875,32.0234156 L33.46875,48.1760741 C33.46875,48.6221152 33.82575,48.9826584 34.265625,48.9826584 L39.84375,48.9826584 L45.421875,48.9826584 C45.86175,48.9826584 46.21875,48.6221152 46.21875,48.1760741 L46.21875,34.4641399 L50.203125,34.4641399 C50.643,34.4641399 51,34.1035967 51,33.6575556 L51,22.3653745 C51,19.2527654 48.4978125,16.719284 45.421875,16.719284 Z M6.375,11.8797778 C6.375,9.21079012 8.51939062,7.0402716 11.15625,7.0402716 C13.7931094,7.0402716 15.9375,9.21079012 15.9375,11.8797778 C15.9375,14.5487654 13.7931094,16.719284 11.15625,16.719284 C8.51939062,16.719284 6.375,14.5487654 6.375,11.8797778 Z M24.703125,31.2378025 L19.921875,31.2378025 C18.6038438,31.2378025 17.53125,30.1521399 17.53125,28.8180494 L17.53125,26.3982963 L17.53125,22.3653745 L15.9375,22.3653745 L15.9375,26.3982963 L15.9375,28.8180494 L15.9375,47.3694897 L11.953125,47.3694897 L11.953125,32.8509712 L10.359375,32.8509712 L10.359375,47.3694897 L6.375,47.3694897 L6.375,22.3653745 L4.78125,22.3653745 L4.78125,32.8509712 L1.59375,32.8509712 L1.59375,22.3653745 C1.59375,20.1416214 3.38114063,18.3324527 5.578125,18.3324527 L16.734375,18.3324527 C18.9313594,18.3324527 20.71875,20.1416214 20.71875,22.3653745 L20.71875,27.2048807 C20.71875,27.6509218 21.07575,28.011465 21.515625,28.011465 L24.703125,28.011465 L24.703125,31.2378025 Z M35.0625,11.8797778 C35.0625,9.21079012 37.2068906,7.0402716 39.84375,7.0402716 C42.4806094,7.0402716 44.625,9.21079012 44.625,11.8797778 C44.625,14.5487654 42.4806094,16.719284 39.84375,16.719284 C37.2068906,16.719284 35.0625,14.5487654 35.0625,11.8797778 Z M49.40625,32.8509712 L46.21875,32.8509712 L46.21875,22.3653745 L44.625,22.3653745 L44.625,47.3694897 L40.640625,47.3694897 L40.640625,32.8509712 L39.046875,32.8509712 L39.046875,47.3694897 L35.0625,47.3694897 L35.0625,28.8180494 L35.0625,26.3982963 L35.0625,22.3653745 L33.46875,22.3653745 L33.46875,26.3982963 L33.46875,28.8180494 C33.46875,30.1521399 32.3961563,31.2378025 31.078125,31.2378025 L26.296875,31.2378025 L26.296875,28.011465 L29.484375,28.011465 C29.92425,28.011465 30.28125,27.6509218 30.28125,27.2048807 L30.28125,22.3653745 C30.28125,20.1416214 32.0686406,18.3324527 34.265625,18.3324527 L45.421875,18.3324527 C47.6188594,18.3324527 49.40625,20.1416214 49.40625,22.3653745 L49.40625,32.8509712 Z M36.4227656,2.43144856 C36.7343437,2.74682305 36.7343437,3.25658436 36.4227656,3.57195885 L34.0265625,5.99735802 L32.8997812,4.85684774 L33.9301406,3.81393416 L28.2149531,3.81393416 L26.6212031,5.42710288 L28.2149531,7.0402716 L31.875,7.0402716 L31.875,8.65344033 L27.8850469,8.65344033 C27.673875,8.65344033 27.4714687,8.56874897 27.3216562,8.41711111 L25.4944219,6.56761317 L23.6671875,8.41711111 C23.5181719,8.56874897 23.3149687,8.65344033 23.1037969,8.65344033 L19.125,8.65344033 L19.125,7.0402716 L22.7738906,7.0402716 L24.3676406,5.42710288 L22.7738906,3.81393416 L17.0587031,3.81393416 L18.0890625,4.85684774 L16.9622812,5.99735802 L14.5660781,3.57195885 C14.2545,3.25658436 14.2545,2.74682305 14.5660781,2.43144856 L16.951125,0.0173415638 L18.0779062,1.15785185 L17.0475469,2.20076543 L23.1037969,2.20076543 C23.3149687,2.20076543 23.5181719,2.28545679 23.6671875,2.43709465 L25.4944219,4.28659259 L27.3216562,2.43709465 C27.4706719,2.28545679 27.673875,2.20076543 27.8850469,2.20076543 L33.9412969,2.20076543 L32.9109375,1.15785185 L34.0377187,0.0173415638 L36.4227656,2.43144856 Z" id="Combined-Shape"></path>
            </g>
        </g>
    </g>
</svg>