<?xml version="1.0" encoding="UTF-8" standalone="no"?>
<svg
   xmlns:dc="http://purl.org/dc/elements/1.1/"
   xmlns:cc="http://creativecommons.org/ns#"
   xmlns:rdf="http://www.w3.org/1999/02/22-rdf-syntax-ns#"
   xmlns:svg="http://www.w3.org/2000/svg"
   xmlns="http://www.w3.org/2000/svg"
   xmlns:sodipodi="http://sodipodi.sourceforge.net/DTD/sodipodi-0.dtd"
   xmlns:inkscape="http://www.inkscape.org/namespaces/inkscape"
   width="49pt"
   height="47pt"
   viewBox="0 0 49 47"
   version="1.1"
   id="svg3623"
   inkscape:version="0.91 r13725"
   sodipodi:docname="ab4.svg">
  <metadata
     id="metadata3634">
    <rdf:RDF>
      <cc:Work
         rdf:about="">
        <dc:format>image/svg+xml</dc:format>
        <dc:type
           rdf:resource="http://purl.org/dc/dcmitype/StillImage" />
      </cc:Work>
    </rdf:RDF>
  </metadata>
  <defs
     id="defs3632" />
  <sodipodi:namedview
     pagecolor="#ffffff"
     bordercolor="#666666"
     borderopacity="1"
     objecttolerance="10"
     gridtolerance="10"
     guidetolerance="10"
     inkscape:pageopacity="0"
     inkscape:pageshadow="2"
     inkscape:window-width="1280"
     inkscape:window-height="676"
     id="namedview3630"
     showgrid="false"
     inkscape:zoom="16.068085"
     inkscape:cx="34.919328"
     inkscape:cy="71.409788"
     inkscape:window-x="0"
     inkscape:window-y="0"
     inkscape:window-maximized="1"
     inkscape:current-layer="svg3623" />
  <g
     id="#ad1b65cb">
    <path
       d="m 15.42,0 c 9.12685,3.0004111 0,0 9.12685,3.0004111 2.956639,-0.1952238 5.579892,-0.5698114 8.944599,-1.1927077 L 33.55,0 c 0,0 0,0 1.746028,2.571095 -0.45,0.6 -1.772467,2.6397271 -1.772467,2.6397271 0,0 0.01245,0.1742585 -0.0122,-2.2062872 -2.4042,0.5483821 -5.874842,1.1068554 -7.908916,1.3497236 C 27.342447,5.7342585 29.09,6.91 30.84,8.28 26.62,7.87 22.38,7.85 18.16,8.3 19.9,6.91 21.67,5.56 23.42,4.18 20.68,4.36 17.95,4.63 15.24,5.06 14.78,4.45 14.33,3.85 13.88,3.24 14.39,2.16 14.91,1.08 15.42,0 Z"
       id="path3626"
       inkscape:connector-curvature="0"
       style="opacity:0.8;fill:#ad1b65"
       sodipodi:nodetypes="cccccccccccccc" />
    <path
       fill="#ad1b65"
       opacity="0.80"
       d=" M 5.29 8.43 C 6.99 4.85 12.34 4.06 15.03 6.96 C 17.50 9.10 16.42 12.58 16.24 15.39 C 17.69 16.40 19.23 17.34 20.46 18.64 C 21.31 20.64 21.50 22.83 21.90 24.94 C 23.63 24.95 25.37 24.95 27.10 24.94 C 27.38 23.33 27.62 21.72 28.02 20.14 C 28.42 17.70 31.04 16.78 32.77 15.39 C 32.58 12.58 31.50 9.10 33.97 6.96 C 36.66 4.05 42.02 4.85 43.71 8.43 C 44.51 10.67 44.13 13.10 44.08 15.42 C 45.75 16.65 47.43 17.87 49.00 19.23 L 49.00 32.82 C 47.47 33.04 45.95 33.27 44.42 33.49 C 44.47 37.99 44.45 42.50 44.37 47.00 L 31.94 47.00 C 31.92 41.83 31.89 36.67 31.90 31.50 C 26.97 31.63 22.03 31.63 17.10 31.50 C 17.11 36.67 17.08 41.83 17.07 47.00 L 4.63 47.00 C 4.56 42.50 4.54 37.99 4.59 33.49 C 3.06 33.26 1.53 33.04 0.00 32.82 L 0.00 19.24 C 1.57 17.88 3.25 16.66 4.92 15.43 C 4.87 13.10 4.49 10.67 5.29 8.43 M 9.34 7.29 C 6.55 7.98 5.42 11.67 7.02 13.95 C 8.84 16.83 14.14 16.34 14.84 12.76 C 15.98 9.50 12.64 6.01 9.34 7.29 M 36.48 7.40 C 33.42 8.67 33.15 13.42 35.87 15.19 C 38.46 16.86 42.59 15.14 42.69 11.87 C 43.16 8.59 39.42 6.08 36.48 7.40 M 2.70 18.72 C 0.90 22.64 1.83 27.11 1.88 31.26 C 2.55 31.16 3.89 30.95 4.56 30.84 C 4.55 27.81 4.59 24.77 4.64 21.73 L 6.12 21.72 C 6.41 29.49 6.18 37.26 6.24 45.03 C 7.41 45.03 8.58 45.03 9.75 45.02 C 9.71 40.21 9.52 35.36 10.30 30.59 C 12.80 34.99 11.26 40.28 11.74 45.08 C 12.58 45.09 14.26 45.10 15.10 45.11 C 15.42 36.92 14.76 28.71 15.53 20.54 C 17.64 23.06 17.11 26.53 17.53 29.57 C 19.61 29.67 21.70 29.74 23.78 29.82 C 23.75 29.25 23.68 28.13 23.65 27.57 C 22.51 27.25 21.37 26.93 20.24 26.62 C 19.88 24.09 19.81 21.48 18.92 19.06 C 17.33 17.63 15.02 17.84 13.04 17.65 C 9.59 17.65 5.94 17.32 2.70 18.72 M 30.07 19.05 C 29.20 21.48 29.12 24.09 28.77 26.62 C 27.63 26.93 26.48 27.25 25.34 27.56 C 25.31 28.13 25.25 29.25 25.22 29.81 C 27.31 29.75 29.39 29.67 31.47 29.57 C 31.90 26.53 31.36 23.06 33.48 20.55 C 34.25 28.71 33.58 36.92 33.91 45.11 C 34.75 45.10 36.42 45.09 37.26 45.08 C 37.74 40.28 36.19 34.99 38.70 30.59 C 39.48 35.36 39.29 40.20 39.25 45.02 C 40.42 45.03 41.58 45.03 42.75 45.01 C 42.82 37.25 42.59 29.48 42.88 21.72 L 44.29 21.73 C 44.42 24.89 44.52 28.06 44.63 31.23 C 45.20 31.39 46.34 31.71 46.91 31.87 C 47.18 27.52 48.15 22.85 46.31 18.72 C 43.05 17.34 39.41 17.65 35.96 17.65 C 33.98 17.84 31.68 17.65 30.07 19.05 Z"
       id="path3628" />
  </g>
</svg>
