<?xml version="1.0" encoding="UTF-8" ?>
<!DOCTYPE svg PUBLIC "-//W3C//DTD SVG 1.1//EN" "http://www.w3.org/Graphics/SVG/1.1/DTD/svg11.dtd">
<svg width="225pt" height="225pt" viewBox="0 0 225 225" version="1.1" xmlns="http://www.w3.org/2000/svg">
<g id="#ffffffff">
</g>
<g id="#000000ff">
<path fill="#b40072" opacity="1.00" d=" M 66.93 4.93 C 70.02 1.42 76.02 1.39 79.20 4.79 C 112.73 38.28 146.21 71.82 179.74 105.30 C 183.89 108.40 184.69 115.08 180.75 118.66 C 146.91 152.53 113.03 186.35 79.18 220.21 C 75.97 223.57 70.08 223.55 66.94 220.09 C 59.26 212.44 51.58 204.78 43.95 197.09 C 40.85 193.93 40.91 188.26 44.17 185.23 C 68.43 161.00 92.62 136.70 116.94 112.54 C 92.68 88.27 68.41 64.02 44.16 39.75 C 40.99 36.69 40.82 31.12 43.93 27.96 C 51.57 20.25 59.26 12.60 66.93 4.93 Z" />
</g>
</svg>
