<?xml version="1.0" encoding="UTF-8" ?>
<!DOCTYPE svg PUBLIC "-//W3C//DTD SVG 1.1//EN" "http://www.w3.org/Graphics/SVG/1.1/DTD/svg11.dtd">
<svg width="225pt" height="225pt" viewBox="0 0 225 225" version="1.1" xmlns="http://www.w3.org/2000/svg">
<g id="#ffffffff">
</g>
<g id="#000000ff">
<path fill="#b40072" opacity="1.00" d=" M 145.84 4.83 C 148.99 1.52 154.89 1.49 157.97 4.91 C 165.54 12.41 173.05 19.98 180.60 27.50 C 184.06 30.59 184.21 36.54 180.82 39.74 C 156.57 64.01 132.33 88.30 108.02 112.51 C 132.17 136.50 156.16 160.66 180.28 184.69 C 183.80 187.70 184.39 193.61 181.04 196.98 C 173.39 204.71 165.68 212.39 157.98 220.07 C 154.94 223.55 148.95 223.50 145.82 220.16 C 111.96 186.35 78.12 152.50 44.29 118.65 C 40.85 115.46 40.86 109.52 44.31 106.33 C 78.13 72.47 112.00 38.66 145.84 4.83 Z" />
</g>
</svg>
