<?xml version="1.0" encoding="UTF-8" ?>
<!DOCTYPE svg PUBLIC "-//W3C//DTD SVG 1.1//EN" "http://www.w3.org/Graphics/SVG/1.1/DTD/svg11.dtd">
<svg width="499pt" height="474pt" viewBox="0 0 499 474" version="1.1" xmlns="http://www.w3.org/2000/svg">
<g id="#0e020948">
<path fill="#0e0209" opacity="0.28" d=" M 0.00 0.00 L 1.01 0.00 C 1.00 9.92 1.01 19.83 1.00 29.75 C 1.00 79.39 1.00 129.02 1.02 178.65 C 1.53 178.19 2.54 177.25 3.05 176.79 C 2.04 177.83 1.03 178.87 0.00 179.90 L 0.00 0.00 Z" />
</g>
<g id="#bf217cff">
<path fill="#bf217c" opacity="1.00" d=" M 1.01 0.00 L 55.65 0.00 C 69.02 13.81 82.97 27.06 96.21 41.00 C 78.12 41.01 60.03 40.99 41.93 41.00 L 41.02 41.00 C 41.02 50.39 41.03 59.78 41.02 69.17 C 27.30 56.43 14.64 42.58 1.00 29.75 C 1.01 19.83 1.00 9.92 1.01 0.00 Z" />
</g>
<g id="#c5227bff">
<path fill="#c5227b" opacity="1.00" d=" M 55.65 0.00 L 179.16 0.00 C 165.78 13.36 152.47 26.80 139.10 40.18 C 138.09 41.36 136.40 40.88 135.05 41.03 C 122.11 40.96 109.16 41.01 96.21 41.00 C 82.97 27.06 69.02 13.81 55.65 0.00 Z" />
<path fill="#c5227b" opacity="1.00" d=" M 257.00 152.55 C 264.35 152.47 271.69 152.73 279.03 152.38 C 279.00 175.32 278.93 198.25 279.07 221.19 C 271.72 220.77 264.36 221.09 257.01 220.99 C 257.01 198.18 256.99 175.36 257.00 152.55 Z" />
<path fill="#c5227b" opacity="1.00" d=" M 497.40 295.70 C 498.47 298.70 497.89 301.95 498.01 305.06 C 498.00 361.37 498.00 417.69 497.99 474.00 L 496.75 474.00 C 490.17 465.73 481.97 458.94 474.77 451.24 C 469.09 445.16 462.52 439.88 457.46 433.24 C 457.87 431.86 458.08 430.43 458.04 429.01 C 457.81 397.80 458.18 366.58 457.85 335.38 C 471.13 322.26 484.28 308.99 497.40 295.70 Z" />
</g>
<g id="#da2578ff">
<path fill="#da2578" opacity="1.00" d=" M 319.83 0.00 L 382.64 0.00 C 396.00 13.84 410.01 27.04 423.26 41.00 C 402.42 41.02 381.57 40.98 360.72 41.01 C 347.10 27.34 333.51 13.62 319.83 0.00 Z" />
<path fill="#da2578" opacity="1.00" d=" M 457.98 75.74 C 471.59 88.64 484.40 102.36 498.00 115.27 C 497.99 136.39 498.02 157.52 497.98 178.65 C 497.48 178.18 496.48 177.25 495.98 176.79 C 483.28 164.07 470.70 151.23 457.87 138.64 C 458.13 117.68 457.90 96.71 457.98 75.74 Z" />
</g>
<g id="#e02677ff">
<path fill="#e02677" opacity="1.00" d=" M 382.64 0.00 L 498.00 0.00 C 498.01 38.42 497.99 76.85 498.00 115.27 C 484.40 102.36 471.59 88.64 457.98 75.74 C 457.98 64.16 457.98 52.58 457.98 41.00 L 457.07 41.00 C 445.80 40.99 434.53 41.00 423.26 41.00 C 410.01 27.04 396.00 13.84 382.64 0.00 Z" />
</g>
<g id="#11030948">
<path fill="#110309" opacity="0.28" d=" M 498.00 0.00 L 499.00 0.00 L 499.00 179.92 C 498.00 178.86 496.99 177.82 495.98 176.79 C 496.48 177.25 497.48 178.18 497.98 178.65 C 498.02 157.52 497.99 136.39 498.00 115.27 C 497.99 76.85 498.01 38.42 498.00 0.00 Z" />
</g>
<g id="#b71f7dff">
<path fill="#b71f7d" opacity="1.00" d=" M 1.00 29.75 C 14.64 42.58 27.30 56.43 41.02 69.17 C 41.12 92.32 40.85 115.47 41.15 138.62 C 28.35 151.23 15.73 164.04 3.05 176.79 C 2.54 177.25 1.53 178.19 1.02 178.65 C 1.00 129.02 1.00 79.39 1.00 29.75 Z" />
</g>
<g id="#12030c50">
<path fill="#12030c" opacity="0.31" d=" M 41.02 41.00 L 41.93 41.00 C 41.91 70.35 41.86 99.70 41.94 129.05 C 41.83 132.23 42.41 135.60 41.15 138.62 C 40.85 115.47 41.12 92.32 41.02 69.17 C 41.03 59.78 41.02 50.39 41.02 41.00 Z" />
</g>
<g id="#15030b50">
<path fill="#15030b" opacity="0.31" d=" M 457.07 41.00 L 457.98 41.00 C 457.98 52.58 457.98 64.16 457.98 75.74 C 457.90 96.71 458.13 117.68 457.87 138.64 C 457.30 137.51 457.04 136.26 457.07 135.00 C 457.11 103.67 457.08 72.33 457.07 41.00 Z" />
</g>
<g id="#20051568">
<path fill="#200515" opacity="0.41" d=" M 179.80 120.90 C 180.82 120.43 181.87 120.03 182.94 119.71 C 183.03 149.14 182.98 178.57 182.99 208.00 C 182.94 212.50 183.19 217.00 182.74 221.49 C 175.14 221.43 167.46 222.07 159.92 221.18 C 167.29 220.77 174.69 221.10 182.07 220.99 C 181.99 187.39 182.08 153.80 182.04 120.21 C 181.48 120.38 180.36 120.73 179.80 120.90 Z" />
</g>
<g id="#c9227aff">
<path fill="#c9227a" opacity="1.00" d=" M 263.29 120.23 C 270.48 117.29 279.48 122.28 280.38 130.08 C 281.91 137.16 276.30 144.65 269.08 145.09 C 262.46 145.80 255.84 140.71 255.07 134.06 C 254.18 128.26 257.77 122.21 263.29 120.23 Z" />
<path fill="#c9227a" opacity="1.00" d=" M 321.46 151.64 C 331.79 149.79 343.25 151.57 351.56 158.30 C 358.73 164.02 362.65 173.05 363.42 182.05 C 364.37 191.93 362.59 202.50 356.42 210.51 C 347.69 221.98 331.49 225.01 318.09 221.56 C 308.12 219.12 299.78 211.35 296.64 201.58 C 293.21 191.09 293.44 179.14 298.01 169.03 C 302.18 159.69 311.47 153.23 321.46 151.64 M 325.12 169.31 C 322.37 170.17 320.31 172.44 319.15 175.01 C 316.49 180.60 316.55 187.05 317.28 193.07 C 318.00 197.59 320.11 202.61 324.71 204.35 C 328.30 205.54 332.74 205.38 335.68 202.73 C 339.56 199.36 340.79 193.95 340.95 189.02 C 341.17 183.23 340.63 176.86 336.84 172.18 C 334.04 168.82 329.14 168.24 325.12 169.31 Z" />
</g>
<g id="#bd207cff">
<path fill="#bd207c" opacity="1.00" d=" M 160.00 128.15 C 166.61 125.76 173.20 123.30 179.80 120.90 C 180.36 120.73 181.48 120.38 182.04 120.21 C 182.08 153.80 181.99 187.39 182.07 220.99 C 174.69 221.10 167.29 220.77 159.92 221.18 C 160.12 190.17 159.94 159.16 160.00 128.15 Z" />
<path fill="#bd207c" opacity="1.00" d=" M 229.20 237.19 C 236.71 234.20 245.90 239.89 246.26 248.02 C 247.33 255.15 241.16 262.25 233.96 262.15 C 227.27 262.46 220.81 256.77 220.77 249.97 C 220.33 244.43 223.98 239.01 229.20 237.19 Z" />
<path fill="#bd207c" opacity="1.00" d=" M 283.04 277.10 C 291.84 266.96 308.88 264.83 319.19 273.83 C 323.31 277.69 325.31 283.29 326.01 288.78 C 326.06 305.18 325.95 321.58 326.06 337.98 C 318.95 338.01 311.84 338.00 304.73 337.98 C 304.50 324.54 305.26 311.06 304.33 297.65 C 303.96 295.05 303.61 292.22 301.78 290.18 C 297.30 284.97 287.60 286.55 284.80 292.77 C 283.43 295.65 283.03 298.88 283.03 302.04 C 283.04 314.10 283.04 326.15 283.03 338.21 C 275.68 338.22 268.32 338.22 260.97 338.21 C 260.96 315.35 260.96 292.48 260.97 269.61 C 268.32 269.61 275.68 269.61 283.03 269.61 C 283.03 272.11 283.03 274.61 283.04 277.10 Z" />
</g>
<g id="#2b071a6c">
<path fill="#2b071a" opacity="0.42" d=" M 224.89 127.89 C 225.72 129.10 225.50 130.61 225.56 132.00 C 225.52 138.66 225.53 145.33 225.54 151.99 C 230.35 152.01 235.16 151.97 239.97 152.01 C 240.00 157.64 240.07 163.28 239.92 168.91 C 235.14 169.08 230.35 168.97 225.56 168.99 C 225.57 179.11 225.34 189.23 225.81 199.34 C 224.96 197.00 224.92 194.49 224.96 192.03 C 225.06 184.05 224.93 176.08 225.04 168.10 C 229.90 167.94 234.75 168.01 239.61 168.00 C 239.62 162.96 239.63 157.91 239.61 152.87 C 234.75 152.80 229.90 152.88 225.05 152.75 C 224.89 144.68 225.13 136.62 224.90 128.55 L 224.89 127.89 Z" />
</g>
<g id="#c1217cff">
<path fill="#c1217c" opacity="1.00" d=" M 203.65 136.48 C 210.66 133.66 217.81 131.18 224.90 128.55 C 225.13 136.62 224.89 144.68 225.05 152.75 C 229.90 152.88 234.75 152.80 239.61 152.87 C 239.63 157.91 239.62 162.96 239.61 168.00 C 234.75 168.01 229.90 167.94 225.04 168.10 C 224.93 176.08 225.06 184.05 224.96 192.03 C 224.92 194.49 224.96 197.00 225.81 199.34 C 226.37 200.82 227.44 202.18 229.02 202.63 C 233.12 203.73 237.40 202.93 241.57 202.72 C 242.16 208.50 242.71 214.28 243.25 220.06 C 233.30 222.45 222.22 224.86 212.46 220.55 C 206.41 218.00 203.67 211.32 203.38 205.14 C 202.84 192.86 203.46 180.55 203.05 168.26 C 199.67 168.35 196.30 168.33 192.92 168.32 C 193.06 163.15 192.98 157.98 193.01 152.82 C 196.55 152.88 200.10 152.86 203.65 152.72 C 203.73 147.31 203.88 141.89 203.65 136.48 Z" />
</g>
<g id="#2e081d6d">
<path fill="#2e081d" opacity="0.43" d=" M 203.13 135.79 L 203.65 136.48 C 203.88 141.89 203.73 147.31 203.65 152.72 C 200.10 152.86 196.55 152.88 193.01 152.82 C 192.98 157.98 193.06 163.15 192.92 168.32 C 192.61 162.93 192.78 157.53 192.77 152.14 C 196.17 151.93 199.57 151.98 202.98 152.00 C 203.08 146.60 202.83 141.19 203.13 135.79 Z" />
</g>
<g id="#b81f7dff">
<path fill="#b81f7d" opacity="1.00" d=" M 88.24 156.40 C 101.23 150.89 116.26 148.90 129.95 152.87 C 138.69 155.30 144.69 163.72 145.10 172.64 C 144.99 188.76 145.04 204.87 145.07 220.99 C 138.01 221.00 130.95 221.00 123.89 220.99 C 123.88 218.94 123.85 216.90 123.82 214.85 C 123.52 215.09 122.93 215.56 122.63 215.79 C 116.11 221.73 106.70 224.34 98.07 222.45 C 93.25 221.63 88.59 219.20 85.71 215.18 C 81.37 209.20 80.80 201.24 82.24 194.19 C 84.07 186.61 90.66 181.01 98.03 179.06 C 106.44 176.82 115.53 177.48 123.71 180.35 C 123.91 176.28 123.41 171.03 118.98 169.39 C 110.56 166.51 101.57 169.39 93.46 172.05 C 91.81 166.81 89.96 161.63 88.24 156.40 M 104.50 196.37 C 103.45 199.37 104.06 203.40 107.09 205.04 C 112.34 207.97 119.20 206.19 123.42 202.25 C 124.00 199.75 123.56 197.11 123.65 194.56 C 120.38 192.89 116.82 191.59 113.09 191.80 C 109.77 191.81 105.91 193.09 104.50 196.37 Z" />
<path fill="#b81f7d" opacity="1.00" d=" M 222.60 269.41 C 229.96 269.39 237.31 269.41 244.67 269.40 C 244.64 292.35 244.74 315.31 244.61 338.26 C 237.28 338.17 229.94 338.24 222.61 338.22 C 222.60 315.28 222.62 292.35 222.60 269.41 Z" />
</g>
<g id="#cf237aff">
<path fill="#cf237a" opacity="1.00" d=" M 399.20 162.08 C 404.86 152.30 417.77 148.55 428.03 152.94 C 426.70 159.89 425.68 166.90 424.53 173.89 C 418.71 172.92 412.54 171.97 406.79 173.76 C 403.18 174.85 400.41 177.91 399.72 181.62 C 399.10 184.02 398.97 186.51 398.99 188.99 C 399.06 199.67 398.98 210.35 399.02 221.03 C 391.69 221.09 384.35 220.80 377.02 221.20 C 377.18 198.32 377.04 175.44 377.08 152.56 C 384.44 152.55 391.80 152.55 399.16 152.55 C 399.15 155.73 399.15 158.90 399.20 162.08 Z" />
</g>
<g id="#1c041155">
<path fill="#1c0411" opacity="0.33" d=" M 256.34 152.15 C 263.89 151.98 271.51 151.58 279.03 152.38 C 271.69 152.73 264.35 152.47 257.00 152.55 C 256.99 175.36 257.01 198.18 257.01 220.99 C 264.36 221.09 271.72 220.77 279.07 221.19 C 271.63 222.31 263.98 221.53 256.46 221.59 C 256.09 198.45 256.34 175.30 256.34 152.15 Z" />
</g>
<g id="#17040f58">
<path fill="#17040f" opacity="0.35" d=" M 145.10 172.64 C 146.68 177.26 145.74 182.22 145.96 186.99 C 145.78 198.52 146.36 210.08 145.69 221.59 C 138.24 221.78 130.78 221.79 123.33 221.58 C 123.07 219.65 122.85 217.72 122.63 215.79 C 122.93 215.56 123.52 215.09 123.82 214.85 C 123.85 216.90 123.88 218.94 123.89 220.99 C 130.95 221.00 138.01 221.00 145.07 220.99 C 145.04 204.87 144.99 188.76 145.10 172.64 Z" />
</g>
<g id="#0e020843">
<path fill="#0e0208" opacity="0.26" d=" M 398.99 188.99 C 398.97 186.51 399.10 184.02 399.72 181.62 C 400.24 186.73 399.70 191.86 399.85 196.98 C 399.73 205.20 400.13 213.42 399.67 221.63 C 394.77 222.06 389.86 221.80 384.96 221.89 C 382.30 221.85 379.55 222.17 377.02 221.20 C 384.35 220.80 391.69 221.09 399.02 221.03 C 398.98 210.35 399.06 199.67 398.99 188.99 Z" />
</g>
<g id="#2406176c">
<path fill="#240617" opacity="0.42" d=" M 368.01 245.68 C 368.15 245.48 368.45 245.08 368.59 244.87 C 369.21 252.89 368.73 260.95 368.85 268.99 C 373.58 269.33 378.52 268.26 383.11 269.64 C 378.12 270.08 373.10 269.93 368.10 269.78 C 367.92 261.75 368.00 253.71 368.01 245.68 Z" />
</g>
<g id="#34081f6e">
<path fill="#34081f" opacity="0.43" d=" M 394.87 245.49 C 399.44 244.62 404.13 244.98 408.74 245.16 C 408.80 245.83 408.92 247.17 408.97 247.85 C 407.06 247.95 405.15 248.01 403.25 248.05 C 403.65 252.44 402.15 257.23 404.36 261.27 C 404.07 261.37 403.48 261.57 403.19 261.68 C 402.67 256.98 403.07 252.22 403.13 247.50 C 404.75 247.54 406.37 247.58 408.00 247.62 L 408.00 245.76 C 403.62 245.75 399.24 245.87 394.87 245.49 Z" />
</g>
<g id="#4e0d2e9d">
<path fill="#4e0d2e" opacity="0.62" d=" M 424.13 245.91 C 424.00 244.32 427.91 244.28 427.95 245.84 C 426.68 246.14 425.40 246.16 424.13 245.91 Z" />
</g>
<g id="#c3217bff">
<path fill="#c3217b" opacity="1.00" d=" M 346.70 253.40 C 353.84 250.93 360.84 248.07 368.01 245.68 C 368.00 253.71 367.92 261.75 368.10 269.78 C 373.10 269.93 378.12 270.08 383.11 269.64 C 382.92 274.86 382.98 280.09 383.07 285.32 C 378.09 284.83 373.09 284.99 368.10 285.16 C 367.88 291.76 368.06 298.36 367.99 304.97 C 367.99 308.45 367.76 312.00 368.74 315.39 C 369.17 317.15 370.14 319.01 372.00 319.59 C 376.18 320.81 380.56 319.95 384.82 319.75 C 385.18 325.55 386.00 331.31 386.38 337.11 C 376.42 339.47 365.34 341.91 355.59 337.56 C 349.16 334.80 346.54 327.49 346.49 320.96 C 346.29 309.09 346.49 297.21 346.39 285.34 C 342.95 285.32 339.52 285.32 336.09 285.33 C 336.08 280.09 336.08 274.85 336.08 269.61 C 339.60 269.61 343.13 269.62 346.65 269.59 C 346.71 264.19 346.63 258.80 346.70 253.40 Z" />
</g>
<g id="#ca227aff">
<path fill="#ca227a" opacity="1.00" d=" M 394.87 245.49 C 399.24 245.87 403.62 245.75 408.00 245.76 L 408.00 247.62 C 406.37 247.58 404.75 247.54 403.13 247.50 C 403.07 252.22 402.67 256.98 403.19 261.68 L 403.30 262.14 L 400.36 262.51 C 400.99 257.51 400.97 252.47 400.60 247.45 C 398.72 247.28 396.85 247.09 394.98 246.92 L 394.87 245.49 Z" />
</g>
<g id="#cc237aff">
<path fill="#cc237a" opacity="1.00" d=" M 410.67 245.44 C 411.97 245.49 413.27 245.54 414.58 245.61 C 416.00 249.89 417.64 254.09 419.26 258.30 C 421.16 254.28 422.39 249.99 424.13 245.91 C 425.40 246.16 426.68 246.14 427.95 245.84 C 428.08 251.36 428.11 256.89 427.92 262.41 C 427.27 262.24 425.95 261.90 425.29 261.73 C 425.14 257.57 425.90 253.45 426.04 249.31 C 425.51 249.80 425.01 250.31 424.53 250.84 C 423.25 254.72 421.96 258.61 420.27 262.33 C 419.78 262.32 418.79 262.28 418.30 262.27 C 416.83 259.02 415.80 255.60 414.55 252.28 C 414.10 251.28 413.57 250.30 413.08 249.34 C 412.90 253.69 412.92 258.07 413.41 262.41 C 412.73 262.38 411.36 262.32 410.68 262.29 C 410.68 256.67 410.68 251.05 410.67 245.44 Z" />
</g>
<g id="#891653d2">
<path fill="#891653" opacity="0.82" d=" M 394.98 246.92 C 396.85 247.09 398.72 247.28 400.60 247.45 C 400.97 252.47 400.99 257.51 400.36 262.51 C 399.85 257.65 400.11 252.76 400.11 247.88 C 398.39 247.92 396.67 247.95 394.97 247.99 L 394.98 246.92 Z" />
</g>
<g id="#3b0a2389">
<path fill="#3b0a23" opacity="0.54" d=" M 413.08 249.34 C 413.57 250.30 414.10 251.28 414.55 252.28 C 413.67 255.60 414.30 259.09 413.41 262.41 C 412.92 258.07 412.90 253.69 413.08 249.34 Z" />
</g>
<g id="#80164dc5">
<path fill="#80164d" opacity="0.77" d=" M 424.53 250.84 C 425.01 250.31 425.51 249.80 426.04 249.31 C 425.90 253.45 425.14 257.57 425.29 261.73 C 425.95 261.90 427.27 262.24 427.92 262.41 L 428.13 262.46 C 427.07 262.43 426.02 262.40 424.97 262.38 C 424.96 258.53 425.28 254.65 424.53 250.84 Z" />
</g>
<g id="#b01e7eff">
<path fill="#b01e7e" opacity="1.00" d=" M 103.86 275.26 C 110.04 270.34 118.05 267.01 126.05 268.46 C 132.88 269.30 139.22 273.34 142.67 279.32 C 148.29 288.79 148.83 300.26 148.04 310.97 C 147.04 321.13 142.28 331.89 132.80 336.71 C 127.35 331.97 121.87 327.10 117.61 321.23 C 124.64 318.78 125.64 310.40 125.59 304.00 C 125.36 298.37 125.05 291.55 120.10 287.87 C 114.57 284.33 107.56 287.62 103.52 291.95 C 101.72 296.73 103.01 301.97 102.68 306.96 C 95.56 300.43 89.14 293.19 81.96 286.74 C 81.94 281.16 81.97 275.59 81.94 270.02 C 88.94 269.99 95.95 270.00 102.96 270.00 C 102.99 271.96 103.04 273.91 103.08 275.87 C 103.28 275.72 103.67 275.41 103.86 275.26 Z" />
</g>
<g id="#b31f7eff">
<path fill="#b31f7e" opacity="1.00" d=" M 184.09 279.05 C 189.72 269.27 202.57 265.65 212.80 269.91 C 211.66 276.90 210.40 283.86 209.44 290.87 C 202.92 289.98 195.74 288.57 189.60 291.70 C 185.41 293.71 184.05 298.73 184.08 303.03 C 184.09 314.77 184.02 326.51 184.13 338.25 C 176.76 337.87 169.38 338.14 162.01 338.09 C 162.00 315.30 162.00 292.51 162.01 269.72 C 169.37 269.66 176.75 269.90 184.11 269.57 C 184.05 272.73 184.08 275.89 184.09 279.05 Z" />
</g>
<g id="#3409268c">
<path fill="#340926" opacity="0.55" d=" M 81.21 269.27 C 88.70 268.98 96.22 269.00 103.72 269.26 C 103.87 271.25 104.04 273.26 103.86 275.26 C 103.67 275.41 103.28 275.72 103.08 275.87 C 103.04 273.91 102.99 271.96 102.96 270.00 C 95.95 270.00 88.94 269.99 81.94 270.02 C 81.97 275.59 81.94 281.16 81.96 286.74 C 81.95 312.16 81.95 337.58 81.98 362.99 C 81.94 364.81 81.77 366.62 81.58 368.43 C 80.97 365.99 80.95 363.46 80.99 360.97 C 81.19 330.41 80.75 299.83 81.21 269.27 Z" />
</g>
<g id="#0d02093b">
<path fill="#0d0209" opacity="0.23" d=" M 161.49 269.19 C 169.01 269.07 176.67 268.39 184.11 269.57 C 176.75 269.90 169.37 269.66 162.01 269.72 C 162.00 292.51 162.00 315.30 162.01 338.09 C 169.38 338.14 176.76 337.87 184.13 338.25 C 181.50 339.22 178.67 339.01 175.93 339.00 C 171.12 338.88 166.31 339.19 161.52 338.74 C 161.42 315.56 161.48 292.37 161.49 269.19 Z" />
</g>
<g id="#2305166b">
<path fill="#230516" opacity="0.42" d=" M 368.10 285.16 C 373.09 284.99 378.09 284.83 383.07 285.32 C 378.46 286.64 373.59 285.75 368.87 285.95 C 368.77 295.76 369.11 305.58 368.74 315.39 C 367.76 312.00 367.99 308.45 367.99 304.97 C 368.06 298.36 367.88 291.76 368.10 285.16 Z" />
</g>
<g id="#aa1d7eff">
<path fill="#aa1d7e" opacity="1.00" d=" M 81.96 286.74 C 89.14 293.19 95.56 300.43 102.68 306.96 C 103.01 301.97 101.72 296.73 103.52 291.95 C 103.68 299.99 103.61 308.04 103.56 316.08 C 107.11 319.88 112.30 322.56 117.61 321.23 C 121.87 327.10 127.35 331.97 132.80 336.71 L 132.91 336.81 C 123.53 341.27 111.64 340.51 103.64 333.58 C 103.54 342.47 103.65 351.36 103.58 360.25 C 96.22 362.90 88.83 365.47 81.58 368.43 C 81.77 366.62 81.94 364.81 81.98 362.99 C 81.95 337.58 81.95 312.16 81.96 286.74 Z" />
</g>
<g id="#3c0a288c">
<path fill="#3c0a28" opacity="0.55" d=" M 326.01 288.78 C 327.52 294.05 326.87 299.58 326.99 304.98 C 326.85 316.15 327.30 327.33 326.75 338.48 C 319.22 338.55 311.70 338.50 304.17 338.51 C 303.97 324.90 303.69 311.24 304.33 297.65 C 305.26 311.06 304.50 324.54 304.73 337.98 C 311.84 338.00 318.95 338.01 326.06 337.98 C 325.95 321.58 326.06 305.18 326.01 288.78 Z" />
</g>
<g id="#0c020a48">
<path fill="#0c020a" opacity="0.28" d=" M 0.00 294.24 C 0.28 294.53 0.83 295.11 1.10 295.40 C 0.86 320.18 1.07 344.96 1.00 369.74 C 0.99 404.50 1.01 439.25 1.01 474.00 L 0.00 474.00 L 0.00 294.24 Z" />
</g>
<g id="#0f020948">
<path fill="#0f0209" opacity="0.28" d=" M 497.40 295.70 C 497.80 295.40 498.60 294.80 499.00 294.50 L 499.00 474.00 L 497.99 474.00 C 498.00 417.69 498.00 361.37 498.01 305.06 C 497.89 301.95 498.47 298.70 497.40 295.70 Z" />
</g>
<g id="#a21c7fff">
<path fill="#a21c7f" opacity="1.00" d=" M 1.00 369.74 C 1.07 344.96 0.86 320.18 1.10 295.40 C 14.59 308.58 27.66 322.18 41.15 335.35 C 40.88 359.96 41.12 384.59 41.02 409.21 C 27.36 396.38 14.60 382.63 1.00 369.74 Z" />
<path fill="#a21c7f" opacity="1.00" d=" M 64.80 433.00 C 89.23 433.08 113.68 432.84 138.11 433.11 C 140.44 434.66 142.14 436.96 144.15 438.88 C 155.85 450.56 167.46 462.34 179.18 474.00 L 105.41 474.00 C 91.99 460.22 78.05 446.95 64.80 433.00 Z" />
</g>
<g id="#0f020c50">
<path fill="#0f020c" opacity="0.31" d=" M 41.15 335.35 C 41.67 336.50 41.91 337.74 41.91 339.01 C 41.89 370.34 41.85 401.67 41.94 433.00 L 41.02 432.99 C 41.04 425.06 41.04 417.13 41.02 409.21 C 41.12 384.59 40.88 359.96 41.15 335.35 Z" />
</g>
<g id="#13030c50">
<path fill="#13030c" opacity="0.31" d=" M 457.06 343.99 C 457.13 341.12 456.69 338.09 457.85 335.38 C 458.18 366.58 457.81 397.80 458.04 429.01 C 458.08 430.43 457.87 431.86 457.46 433.24 C 456.76 428.16 457.16 423.04 457.10 417.94 C 457.07 393.29 457.15 368.64 457.06 343.99 Z" />
</g>
<g id="#9c1b80ff">
<path fill="#9c1b80" opacity="1.00" d=" M 1.00 369.74 C 14.60 382.63 27.36 396.38 41.02 409.21 C 41.04 417.13 41.04 425.06 41.02 432.99 L 41.94 433.00 C 49.56 433.01 57.18 432.99 64.80 433.00 C 78.05 446.95 91.99 460.22 105.41 474.00 L 1.01 474.00 C 1.01 439.25 0.99 404.50 1.00 369.74 Z" />
</g>
<g id="#ba207dff">
<path fill="#ba207d" opacity="1.00" d=" M 359.89 433.83 C 360.90 432.61 362.61 433.11 363.99 432.97 C 395.14 433.20 426.31 432.66 457.46 433.24 C 462.52 439.88 469.09 445.16 474.77 451.24 C 481.97 458.94 490.17 465.73 496.75 474.00 L 319.84 474.00 C 333.23 460.65 346.53 447.21 359.89 433.83 Z" />
</g>
</svg>
