<?xml version="1.0" encoding="UTF-8" ?>
<!DOCTYPE svg PUBLIC "-//W3C//DTD SVG 1.1//EN" "http://www.w3.org/Graphics/SVG/1.1/DTD/svg11.dtd">
<svg width="83pt" height="79pt" viewBox="0 0 83 79" version="1.1" xmlns="http://www.w3.org/2000/svg">
<g id="#b72487ff">
<path fill="#b72487" opacity="1.00" d=" M 0.00 0.00 L 1.95 0.00 C 3.92 2.01 5.62 4.29 6.79 6.85 C 6.90 12.26 6.77 17.66 6.82 23.07 C 4.56 25.41 2.21 27.66 0.00 30.05 L 0.00 0.00 Z" />
</g>
<g id="#c32584ff">
<path fill="#c32584" opacity="1.00" d=" M 1.95 0.00 L 29.93 0.00 C 27.53 2.22 25.27 4.59 22.96 6.89 C 17.57 6.86 12.18 6.89 6.79 6.85 C 5.62 4.29 3.92 2.01 1.95 0.00 Z" />
</g>
<g id="#e4237dff">
<path fill="#e4237d" opacity="1.00" d=" M 53.08 0.00 L 83.00 0.00 L 83.00 30.04 C 80.79 27.66 78.45 25.41 76.19 23.08 C 76.20 17.68 76.19 12.28 76.18 6.88 C 70.80 6.87 65.42 6.86 60.05 6.88 C 57.73 4.58 55.48 2.21 53.08 0.00 Z" />
</g>
<g id="#bc2486ff">
<path fill="#bc2486" opacity="1.00" d=" M 26.57 21.29 C 27.84 20.84 29.11 20.38 30.38 19.93 C 30.38 25.58 30.37 31.23 30.37 36.87 C 29.42 36.87 27.52 36.87 26.57 36.87 C 26.57 31.68 26.55 26.49 26.57 21.29 Z" />
</g>
<g id="#ca2482ff">
<path fill="#ca2482" opacity="1.00" d=" M 43.23 20.32 C 45.46 18.39 48.15 22.23 45.87 23.83 C 43.63 25.61 40.96 21.86 43.23 20.32 Z" />
<path fill="#ca2482" opacity="1.00" d=" M 52.33 25.55 C 56.07 23.84 60.93 26.71 60.57 31.00 C 61.07 35.10 56.73 38.26 52.92 36.96 C 47.82 35.75 47.52 27.36 52.33 25.55 M 53.54 28.54 C 52.36 30.28 52.21 33.93 54.88 34.24 C 58.02 33.54 56.98 26.54 53.54 28.54 Z" />
</g>
<g id="#c02584ff">
<path fill="#c02584" opacity="1.00" d=" M 33.81 22.71 C 35.03 22.25 36.26 21.79 37.49 21.33 C 37.50 22.68 37.51 24.02 37.51 25.36 C 38.12 25.37 39.34 25.38 39.95 25.38 C 39.95 26.06 39.95 27.43 39.95 28.11 C 39.32 28.12 38.07 28.14 37.45 28.15 C 37.67 30.45 36.50 34.58 40.24 34.01 C 40.30 34.74 40.43 36.19 40.50 36.92 C 38.43 36.88 35.56 37.92 34.17 35.79 C 33.44 33.44 33.83 30.92 33.76 28.49 C 32.33 28.09 31.69 27.08 31.83 25.47 C 32.33 25.43 33.32 25.37 33.81 25.33 C 33.81 24.68 33.81 23.36 33.81 22.71 Z" />
</g>
<g id="#b82586ff">
<path fill="#b82586" opacity="1.00" d=" M 15.24 28.57 C 14.82 27.25 14.21 25.67 16.09 25.49 C 18.75 24.81 23.10 24.60 23.98 27.96 C 24.38 30.91 24.15 33.91 24.18 36.88 C 21.46 36.56 18.75 36.91 16.03 37.08 C 12.95 36.49 12.54 31.60 15.23 30.23 C 16.92 29.29 18.92 29.77 20.76 29.75 C 20.55 29.34 20.14 28.51 19.93 28.10 C 18.37 28.24 16.80 28.40 15.24 28.57 M 17.27 33.82 C 18.63 35.05 20.06 33.74 21.26 33.03 C 19.97 32.08 16.97 31.26 17.27 33.82 Z" />
</g>
<g id="#c42483ff">
<path fill="#c42483" opacity="1.00" d=" M 42.69 25.37 C 43.62 25.37 45.50 25.37 46.44 25.37 C 46.44 29.21 46.44 33.04 46.43 36.88 C 45.50 36.88 43.63 36.87 42.69 36.87 C 42.69 33.04 42.69 29.21 42.69 25.37 Z" />
</g>
<g id="#d02381ff">
<path fill="#d02381" opacity="1.00" d=" M 62.75 25.39 C 63.68 25.38 65.54 25.36 66.48 25.35 L 66.28 26.52 C 67.84 25.72 69.47 25.04 71.26 25.08 C 71.15 26.00 70.94 27.85 70.84 28.78 C 69.51 29.10 67.62 28.53 66.72 29.81 C 66.31 32.14 66.53 34.53 66.49 36.88 C 65.56 36.88 63.69 36.87 62.75 36.87 C 62.75 33.04 62.75 29.21 62.75 25.39 Z" />
</g>
<g id="#bb2486ff">
<path fill="#bb2486" opacity="1.00" d=" M 38.49 39.40 C 41.28 38.77 42.05 43.59 39.07 43.74 C 36.29 44.18 35.77 39.66 38.49 39.40 Z" />
<path fill="#bb2486" opacity="1.00" d=" M 43.32 44.85 C 44.75 44.96 46.19 45.13 47.60 45.42 C 49.59 44.62 52.45 44.09 53.73 46.32 C 54.91 49.53 54.21 53.08 54.37 56.44 C 53.43 56.44 51.57 56.44 50.63 56.44 C 50.58 53.88 50.84 51.30 50.39 48.77 C 49.91 47.33 47.69 47.75 47.31 49.04 C 46.97 51.49 47.14 53.97 47.12 56.43 C 45.87 56.43 44.62 56.43 43.38 56.44 C 43.39 52.58 43.39 48.71 43.32 44.85 Z" />
</g>
<g id="#c22584ff">
<path fill="#c22584" opacity="1.00" d=" M 57.60 42.23 C 58.84 41.77 60.07 41.31 61.31 40.85 C 61.31 42.18 61.31 43.51 61.31 44.84 C 61.92 44.86 63.14 44.89 63.75 44.90 C 63.76 45.58 63.76 46.93 63.77 47.61 C 63.14 47.62 61.87 47.64 61.24 47.65 C 61.52 49.96 60.35 54.11 64.10 53.50 C 64.17 54.21 64.31 55.65 64.38 56.37 C 62.23 56.44 59.00 57.50 57.89 54.93 C 57.43 52.55 57.65 50.10 57.63 47.69 C 57.14 47.65 56.17 47.58 55.69 47.55 C 55.52 45.90 56.18 44.88 57.67 44.48 C 57.65 43.92 57.62 42.80 57.60 42.23 Z" />
</g>
<g id="#5c103a73">
</g>
<g id="#aa2589ff">
<path fill="#aa2589" opacity="1.00" d=" M 13.45 61.46 C 13.43 55.92 13.44 50.38 13.43 44.85 C 16.28 45.50 19.17 44.58 21.98 44.96 C 25.26 46.79 25.31 51.68 23.69 54.66 C 22.37 57.06 19.40 56.68 17.16 56.17 C 17.20 57.46 17.24 58.75 17.27 60.04 C 16.00 60.51 14.72 60.98 13.45 61.46 M 17.29 48.14 C 17.27 49.81 17.25 51.47 17.24 53.14 C 20.01 54.60 21.62 51.59 20.60 49.13 C 20.38 47.34 18.48 48.09 17.29 48.14 Z" />
</g>
<g id="#b12588ff">
<path fill="#b12588" opacity="1.00" d=" M 26.88 44.69 C 28.30 44.96 29.71 45.21 31.14 45.38 C 32.57 45.08 34.00 44.82 35.44 44.60 C 35.31 45.52 35.05 47.38 34.92 48.31 C 33.62 48.48 32.17 48.26 31.00 48.98 C 30.35 51.40 30.68 53.96 30.61 56.44 C 29.37 56.44 28.12 56.43 26.88 56.43 C 26.88 52.52 26.87 48.61 26.88 44.69 Z" />
</g>
<g id="#b62487ff">
<path fill="#b62487" opacity="1.00" d=" M 37.00 44.88 C 38.25 44.88 39.50 44.88 40.75 44.88 C 40.75 48.73 40.75 52.58 40.75 56.44 C 39.50 56.44 38.26 56.44 37.01 56.45 C 37.00 52.59 37.00 48.73 37.00 44.88 Z" />
</g>
<g id="#9b268dff">
<path fill="#9b268d" opacity="1.00" d=" M 0.00 48.95 C 2.21 51.34 4.57 53.59 6.83 55.93 C 6.81 61.33 6.82 66.72 6.82 72.12 C 12.19 72.12 17.57 72.13 22.95 72.11 C 25.27 74.41 27.52 76.79 29.93 79.00 L 0.00 79.00 L 0.00 48.95 Z" />
</g>
<g id="#c62483ff">
<path fill="#c62483" opacity="1.00" d=" M 76.33 56.13 C 78.14 53.40 80.85 51.41 83.00 48.96 L 83.00 79.00 L 82.33 79.00 C 80.13 76.85 78.16 74.48 76.18 72.12 C 76.33 66.80 75.92 61.45 76.33 56.13 Z" />
</g>
<g id="#b82486ff">
<path fill="#b82486" opacity="1.00" d=" M 60.05 72.11 C 65.43 72.13 70.81 72.11 76.18 72.12 C 78.16 74.48 80.13 76.85 82.33 79.00 L 53.09 79.00 C 55.49 76.79 57.73 74.41 60.05 72.11 Z" />
</g>
</svg>
