<?xml version="1.0" encoding="UTF-8" ?>
<!DOCTYPE svg PUBLIC "-//W3C//DTD SVG 1.1//EN" "http://www.w3.org/Graphics/SVG/1.1/DTD/svg11.dtd">
<svg width="83pt" height="79pt" viewBox="0 0 83 79" version="1.1" xmlns="http://www.w3.org/2000/svg">
<g id="#be2485ff">
<path fill="#be2485" opacity="1.00" d=" M 0.00 0.00 L 29.95 0.00 C 27.53 2.20 25.28 4.58 22.96 6.89 C 17.58 6.88 12.19 6.88 6.81 6.88 C 6.68 12.21 7.11 17.57 6.62 22.88 C 4.82 25.61 2.13 27.60 0.00 30.04 L 0.00 0.00 Z" />
<path fill="#be2485" opacity="1.00" d=" M 53.02 0.00 L 83.00 0.00 L 83.00 30.09 C 80.79 27.68 78.43 25.41 76.15 23.07 C 76.15 17.69 76.15 12.31 76.14 6.93 C 70.78 6.92 65.41 6.91 60.05 6.92 C 57.72 4.60 55.46 2.20 53.02 0.00 Z" />
<path fill="#be2485" opacity="1.00" d=" M 26.57 21.30 C 27.84 20.84 29.11 20.38 30.38 19.93 C 30.38 25.58 30.37 31.22 30.37 36.87 C 29.42 36.87 27.52 36.87 26.57 36.87 C 26.57 31.68 26.55 26.49 26.57 21.30 Z" />
<path fill="#be2485" opacity="1.00" d=" M 43.23 20.31 C 45.54 18.44 48.04 22.10 45.94 23.89 C 43.59 25.52 40.97 21.95 43.23 20.31 Z" />
<path fill="#be2485" opacity="1.00" d=" M 33.81 22.70 C 35.03 22.24 36.26 21.79 37.49 21.33 C 37.50 22.68 37.51 24.02 37.52 25.36 C 38.12 25.36 39.34 25.37 39.94 25.38 C 39.94 26.06 39.95 27.42 39.95 28.11 C 39.31 28.12 38.04 28.15 37.41 28.16 C 37.71 30.52 36.53 34.45 40.24 34.12 C 40.30 34.85 40.41 36.30 40.47 37.02 C 38.40 36.87 35.60 37.87 34.17 35.82 C 33.50 33.50 33.81 31.05 33.72 28.68 C 32.55 27.97 31.86 26.91 31.65 25.52 C 32.19 25.47 33.27 25.38 33.81 25.33 C 33.81 24.67 33.81 23.36 33.81 22.70 Z" />
<path fill="#be2485" opacity="1.00" d=" M 14.92 28.52 C 13.51 25.22 16.92 25.25 19.01 25.11 C 20.99 24.99 23.60 25.72 23.97 28.00 C 24.39 30.92 24.15 33.89 24.19 36.84 C 21.45 36.66 18.72 36.90 15.98 37.03 C 12.91 36.46 12.58 31.55 15.24 30.22 C 16.93 29.33 18.93 29.79 20.77 29.69 C 20.56 29.29 20.14 28.50 19.93 28.10 C 18.26 28.22 16.59 28.37 14.92 28.52 M 17.53 32.31 C 15.96 34.94 21.11 35.03 20.68 32.48 C 19.64 32.01 18.59 31.95 17.53 32.31 Z" />
<path fill="#be2485" opacity="1.00" d=" M 52.35 25.54 C 56.07 23.84 60.90 26.70 60.58 30.95 C 61.09 35.06 56.80 38.25 52.97 36.98 C 47.82 35.81 47.49 27.34 52.35 25.54 M 53.65 28.59 C 52.27 30.03 52.24 34.01 54.84 34.18 C 58.01 33.75 56.97 26.49 53.65 28.59 Z" />
<path fill="#be2485" opacity="1.00" d=" M 42.69 25.37 C 43.62 25.37 45.50 25.37 46.44 25.37 C 46.44 29.21 46.44 33.05 46.44 36.88 C 45.50 36.88 43.62 36.88 42.69 36.88 C 42.69 33.04 42.68 29.20 42.69 25.37 Z" />
<path fill="#be2485" opacity="1.00" d=" M 62.74 25.37 C 63.68 25.36 65.56 25.34 66.50 25.33 L 66.20 26.38 C 67.83 25.75 69.51 25.26 71.22 24.90 C 71.14 25.86 70.98 27.77 70.90 28.73 C 69.50 29.22 66.89 28.36 66.65 30.41 C 66.38 32.56 66.51 34.74 66.48 36.90 C 65.55 36.90 63.68 36.89 62.75 36.89 C 62.74 33.05 62.74 29.21 62.74 25.37 Z" />
<path fill="#be2485" opacity="1.00" d=" M 38.46 39.42 C 41.31 38.79 42.03 43.52 39.07 43.83 C 36.34 44.05 35.74 39.78 38.46 39.42 Z" />
<path fill="#be2485" opacity="1.00" d=" M 57.61 42.23 C 58.85 41.77 60.08 41.30 61.32 40.84 C 61.31 42.18 61.31 43.51 61.30 44.84 C 61.92 44.86 63.14 44.89 63.76 44.90 C 63.76 45.58 63.77 46.93 63.77 47.61 C 63.13 47.62 61.85 47.65 61.21 47.67 C 61.53 50.05 60.37 53.92 64.10 53.60 C 64.17 54.30 64.31 55.72 64.38 56.43 C 62.35 56.41 59.93 57.25 58.27 55.68 C 57.14 53.21 57.76 50.34 57.61 47.70 C 57.09 47.65 56.03 47.53 55.50 47.48 C 55.73 46.07 56.44 45.01 57.63 44.28 C 57.63 43.77 57.62 42.74 57.61 42.23 Z" />
<path fill="#be2485" opacity="1.00" d=" M 13.44 44.86 C 16.29 45.35 19.15 44.71 21.98 44.95 C 25.23 46.82 25.30 51.67 23.68 54.65 C 22.35 57.08 19.39 56.55 17.12 56.25 C 17.18 57.51 17.23 58.77 17.28 60.03 C 16.01 60.50 14.74 60.97 13.47 61.44 C 13.44 55.92 13.46 50.39 13.44 44.86 M 17.42 48.39 C 17.19 50.01 17.23 51.65 17.18 53.29 C 18.49 53.17 20.75 54.09 20.64 51.97 C 21.59 49.89 19.83 46.16 17.42 48.39 Z" />
<path fill="#be2485" opacity="1.00" d=" M 26.88 44.71 C 28.30 44.93 29.72 45.16 31.13 45.41 C 32.55 45.09 33.98 44.80 35.42 44.53 C 35.30 45.46 35.06 47.30 34.94 48.22 C 33.60 48.40 32.23 48.50 30.93 48.89 C 30.48 51.38 30.61 53.92 30.59 56.44 C 29.35 56.43 28.11 56.42 26.88 56.41 C 26.88 52.51 26.87 48.61 26.88 44.71 Z" />
<path fill="#be2485" opacity="1.00" d=" M 37.01 44.87 C 38.25 44.88 39.50 44.88 40.75 44.88 C 40.74 48.73 40.74 52.58 40.74 56.43 C 39.50 56.43 38.26 56.44 37.02 56.44 C 37.01 52.59 37.01 48.73 37.01 44.87 Z" />
<path fill="#be2485" opacity="1.00" d=" M 43.37 44.90 C 44.13 44.88 45.66 44.85 46.43 44.83 C 46.64 45.00 47.08 45.35 47.30 45.53 C 49.37 44.75 52.35 43.94 53.72 46.31 C 54.90 49.53 54.21 53.08 54.37 56.43 C 53.44 56.43 51.57 56.43 50.64 56.43 C 50.44 53.67 51.18 50.66 50.00 48.06 C 48.67 47.42 47.06 48.36 47.21 49.87 C 47.03 52.05 47.11 54.24 47.11 56.43 C 45.86 56.43 44.62 56.43 43.38 56.44 C 43.38 52.59 43.38 48.75 43.37 44.90 Z" />
<path fill="#be2485" opacity="1.00" d=" M 0.00 48.97 C 2.13 51.43 4.86 53.40 6.61 56.17 C 7.07 61.48 6.65 66.84 6.77 72.17 C 12.17 72.16 17.57 72.16 22.98 72.15 C 25.27 74.46 27.51 76.82 29.94 79.00 L 0.00 79.00 L 0.00 48.97 Z" />
<path fill="#be2485" opacity="1.00" d=" M 76.17 55.93 C 78.44 53.59 80.80 51.33 83.00 48.92 L 83.00 79.00 L 53.07 79.00 C 55.48 76.81 57.73 74.43 60.03 72.13 C 65.42 72.13 70.80 72.12 76.18 72.12 C 76.18 66.72 76.18 61.32 76.17 55.93 Z" />
</g>
</svg>
